{"glyphs":{"0":{"ha":667,"x_min":54,"x_max":615,"o":"m 473 283 l 473 703 q 435 814 473 774 q 334 854 397 854 q 233 814 271 854 q 195 703 195 774 l 195 283 q 233 172 195 212 q 334 132 271 132 q 435 172 397 132 q 473 283 473 212 m 54 275 l 54 711 q 139 922 54 848 q 334 996 224 996 q 529 922 444 996 q 615 711 615 848 l 615 275 q 529 65 615 139 q 334 -9 444 -9 q 139 65 224 -9 q 54 275 54 139 z "},"1":{"ha":469,"x_min":92,"x_max":376,"o":"m 233 -3 l 233 838 l 92 734 l 92 885 l 233 987 l 376 987 l 376 -3 l 233 -3 z "},"2":{"ha":667,"x_min":45,"x_max":609,"o":"m 45 -1 l 45 132 l 432 616 q 461 668 454 644 q 468 714 468 692 q 431 810 468 766 q 332 854 395 854 q 233 816 274 854 q 187 711 192 778 l 45 711 q 127 914 46 831 q 321 996 209 996 q 527 913 444 996 q 609 713 609 830 q 550 539 609 612 l 232 140 l 609 140 l 609 -1 l 45 -1 z "},"3":{"ha":667,"x_min":19,"x_max":600,"o":"m 245 446 l 245 571 l 294 571 q 406 611 365 571 q 447 711 447 650 q 404 813 447 772 q 302 854 361 854 q 218 825 258 854 q 166 735 178 795 l 24 735 q 112 918 33 840 q 297 996 191 996 q 509 909 429 996 q 589 714 589 822 q 566 603 589 657 q 483 510 544 549 q 572 412 545 470 q 600 294 600 353 q 513 73 600 155 q 300 -9 426 -9 q 119 56 199 -9 q 19 245 39 121 l 161 245 q 214 163 180 194 q 308 132 247 132 q 412 174 367 132 q 458 289 458 216 q 413 405 458 363 q 305 446 368 446 l 245 446 z "},"4":{"ha":667,"x_min":18,"x_max":651,"o":"m 18 146 l 18 279 l 349 987 l 507 987 l 172 279 l 430 279 l 430 564 l 572 564 l 572 279 l 651 279 l 651 146 l 572 146 l 572 -1 l 430 -1 l 430 146 l 18 146 z "},"5":{"ha":667,"x_min":52,"x_max":616,"o":"m 71 453 l 71 987 l 597 987 l 597 846 l 204 846 l 204 623 q 362 677 272 677 q 465 655 418 677 q 538 604 511 633 q 598 508 579 560 q 616 334 616 456 q 602 185 616 234 q 555 96 587 137 q 470 24 525 58 q 341 -9 415 -9 q 157 50 245 -9 q 52 248 68 109 l 194 248 q 336 132 219 132 q 457 203 439 132 q 475 345 475 275 q 447 481 475 427 q 332 535 419 535 q 204 453 250 535 l 71 453 z "},"6":{"ha":672,"x_min":68,"x_max":615,"o":"m 68 273 l 68 711 q 154 922 69 848 q 341 996 232 996 q 515 939 438 996 q 609 771 587 881 l 467 771 q 340 854 433 852 q 206 702 208 851 l 206 609 q 389 640 304 640 q 551 574 484 640 q 614 364 615 507 l 614 274 q 532 63 612 136 q 341 -12 455 -9 q 154 62 231 -9 q 68 273 69 136 m 206 363 l 206 281 q 341 130 208 130 q 477 281 472 130 l 477 363 q 341 514 472 511 q 206 363 208 511 z "},"7":{"ha":667,"x_min":72,"x_max":634,"o":"m 72 703 l 72 987 l 634 987 l 634 846 l 300 -1 l 141 -1 l 476 846 l 214 846 l 214 703 l 72 703 z "},"8":{"ha":667,"x_min":33,"x_max":635,"o":"m 193 713 q 236 607 193 643 q 334 571 280 571 q 432 607 389 571 q 476 713 476 643 q 432 818 476 782 q 334 854 389 854 q 236 818 280 854 q 193 713 193 782 m 33 288 q 150 510 33 432 q 78 597 106 549 q 51 710 51 645 q 133 913 51 829 q 334 996 214 996 q 536 913 454 996 q 618 710 618 829 q 590 597 618 645 q 519 510 562 549 q 635 288 635 431 q 546 74 635 156 q 334 -9 457 -9 q 122 74 211 -9 q 33 288 33 156 m 175 289 q 223 177 175 221 q 334 132 271 132 q 446 177 397 132 q 494 289 494 221 q 446 401 494 357 q 334 446 397 446 q 223 401 271 446 q 175 289 175 357 z "},"9":{"ha":686,"x_min":67,"x_max":614,"o":"m 68 620 l 68 711 q 154 922 69 848 q 341 996 232 996 q 532 922 453 996 q 614 711 612 847 l 614 274 q 532 63 612 138 q 341 -12 455 -9 q 171 47 243 -9 q 74 213 95 106 l 216 213 q 341 130 248 130 q 477 281 472 130 l 477 375 q 293 345 378 342 q 134 411 199 342 q 68 620 67 477 m 206 703 l 206 621 q 341 469 208 471 q 477 621 473 471 l 477 703 q 341 854 472 851 q 206 703 208 851 z "}," ":{"ha":333,"x_min":0,"x_max":0,"o":""},"C":{"ha":772,"x_min":72,"x_max":772,"o":"m 614 275 l 772 275 q 647 64 743 137 q 425 -9 551 -9 q 229 47 308 -9 q 115 168 150 103 q 81 263 91 212 q 72 493 72 315 q 81 723 72 671 q 115 818 91 774 q 229 939 150 882 q 425 996 308 996 q 657 910 565 996 q 772 703 749 823 l 614 703 q 546 803 595 760 q 425 846 496 846 q 333 824 372 846 q 272 774 294 802 q 232 690 243 736 q 222 493 222 645 q 232 295 222 340 q 272 213 243 250 q 333 162 294 183 q 425 140 372 140 q 614 275 549 140 z "},"D":{"ha":875,"x_min":105,"x_max":805,"o":"m 105 -1 l 105 987 l 451 987 q 752 821 654 987 q 797 703 789 758 q 805 493 805 648 q 794 270 805 326 q 749 163 783 214 q 628 46 705 94 q 441 -1 551 -1 l 105 -1 m 255 846 l 255 140 l 435 140 q 618 227 558 140 q 649 307 642 264 q 655 488 655 350 q 648 671 655 621 q 611 763 641 722 q 435 846 549 846 l 255 846 z "},"E":{"ha":772,"x_min":105,"x_max":737,"o":"m 105 -1 l 105 987 l 737 987 l 737 846 l 255 846 l 255 564 l 666 564 l 666 431 l 255 431 l 255 140 l 737 140 l 737 -1 l 105 -1 z "},"F":{"ha":745,"x_min":105,"x_max":737,"o":"m 105 -1 l 105 987 l 737 987 l 737 846 l 255 846 l 255 555 l 666 555 l 666 421 l 255 421 l 255 -1 l 105 -1 z "},"G":{"ha":847,"x_min":72,"x_max":777,"o":"m 426 401 l 426 543 l 777 543 l 777 342 q 675 93 777 195 q 425 -9 572 -9 q 229 47 308 -9 q 115 168 150 103 q 81 263 91 212 q 72 493 72 315 q 81 723 72 671 q 115 818 91 774 q 229 939 150 882 q 425 996 308 996 q 657 910 565 996 q 772 703 749 823 l 614 703 q 546 803 595 760 q 425 846 496 846 q 333 824 372 846 q 272 774 294 802 q 232 690 243 736 q 222 493 222 645 q 232 295 222 340 q 272 213 243 250 q 333 162 294 183 q 425 140 372 140 q 569 199 510 140 q 627 351 627 257 l 627 401 l 426 401 z "},"H":{"ha":900,"x_min":105,"x_max":797,"o":"m 647 -1 l 647 431 l 255 431 l 255 -1 l 105 -1 l 105 987 l 255 987 l 255 564 l 647 564 l 647 987 l 797 987 l 797 -1 l 647 -1 z "},"I":{"ha":358,"x_min":105,"x_max":255,"o":"m 105 -1 l 105 987 l 255 987 l 255 -1 l 105 -1 z "},"J":{"ha":668,"x_min":3,"x_max":576,"o":"m 3 120 l 123 208 q 255 140 170 140 q 369 180 311 140 q 426 321 426 220 l 426 987 l 576 987 l 576 306 q 477 74 576 157 q 260 -9 379 -9 q 109 27 174 -9 q 3 120 44 62 z "},"K":{"ha":875,"x_min":105,"x_max":876,"o":"m 105 -1 l 105 987 l 255 987 l 255 478 l 258 478 l 665 987 l 843 987 l 526 597 l 876 -1 l 699 -1 l 429 482 l 255 300 l 255 -1 l 105 -1 z "},"M":{"ha":1053,"x_min":105,"x_max":949,"o":"m 105 -1 l 105 987 l 247 987 l 530 343 l 808 987 l 949 987 l 949 -1 l 800 -1 l 800 616 l 797 616 l 590 140 l 465 140 l 258 616 l 255 616 l 255 -1 l 105 -1 z "},"N":{"ha":949,"x_min":105,"x_max":847,"o":"m 105 -1 l 105 987 l 247 987 l 694 285 l 696 285 l 696 987 l 847 987 l 847 -1 l 705 -1 l 258 702 l 255 702 l 255 -1 l 105 -1 z "},"O":{"ha":847,"x_min":72,"x_max":777,"o":"m 72 493 q 81 723 72 671 q 115 818 91 774 q 229 939 150 882 q 425 996 308 996 q 620 939 541 996 q 734 818 699 882 q 768 723 758 774 q 777 493 777 671 q 768 263 777 315 q 734 168 758 212 q 620 47 699 103 q 425 -9 541 -9 q 229 47 308 -9 q 115 168 150 103 q 81 263 91 212 q 72 493 72 315 m 222 493 q 232 295 222 340 q 272 213 243 250 q 333 162 294 183 q 425 140 372 140 q 516 162 477 140 q 577 213 555 183 q 617 295 606 250 q 627 493 627 340 q 617 690 627 645 q 577 774 606 736 q 516 824 555 802 q 425 846 477 846 q 333 824 372 846 q 272 774 294 802 q 232 690 243 736 q 222 493 222 645 z "},"P":{"ha":823,"x_min":105,"x_max":793,"o":"m 255 846 l 255 527 l 477 527 q 602 577 561 527 q 643 686 643 627 q 578 818 643 776 q 472 846 537 846 l 255 846 m 105 -1 l 105 987 l 464 987 q 575 975 522 987 q 686 918 628 963 q 762 823 730 884 q 793 682 793 762 q 714 481 793 576 q 483 385 635 385 l 255 385 l 255 -1 l 105 -1 z "},"Q":{"ha":847,"x_min":72,"x_max":872,"o":"m 536 175 l 410 275 l 498 378 l 614 286 q 627 493 627 334 q 617 690 627 645 q 577 774 606 736 q 516 824 555 802 q 425 846 477 846 q 333 824 372 846 q 272 774 294 802 q 232 690 243 736 q 222 493 222 645 q 232 295 222 340 q 272 213 243 250 q 333 162 294 183 q 425 140 372 140 q 536 175 488 140 m 783 -23 l 658 77 q 556 15 614 39 q 425 -9 498 -9 q 229 47 308 -9 q 115 168 150 103 q 81 263 91 212 q 72 493 72 315 q 81 723 72 671 q 115 818 91 774 q 229 939 150 882 q 425 996 308 996 q 620 939 541 996 q 734 818 699 882 q 768 723 758 774 q 777 493 777 671 q 769 277 777 332 q 741 184 762 222 l 872 79 l 783 -23 z "},"R":{"ha":847,"x_min":105,"x_max":829,"o":"m 255 854 l 255 555 l 481 555 q 608 602 566 555 q 650 711 650 648 q 600 824 650 787 q 490 854 557 854 l 255 854 m 105 -1 l 105 987 l 492 987 q 692 922 618 987 q 763 832 734 886 q 791 711 791 778 q 740 542 791 616 q 600 438 689 469 l 829 -1 l 651 -1 l 447 421 l 255 421 l 255 -1 l 105 -1 z "},"S":{"ha":797,"x_min":19,"x_max":744,"o":"m 19 127 l 118 239 q 246 168 174 195 q 398 140 319 140 q 542 178 490 140 q 594 278 594 216 q 465 412 594 395 q 402 420 431 416 q 334 429 373 424 q 139 523 206 447 q 72 707 72 600 q 156 915 72 833 q 394 996 241 996 q 566 967 486 996 q 715 893 647 938 l 631 770 q 515 825 577 804 q 387 846 452 846 q 270 810 318 846 q 222 705 222 775 q 254 626 222 663 q 362 578 287 589 q 410 571 382 574 q 473 563 437 567 q 678 463 612 546 q 744 278 744 379 q 650 66 744 142 q 397 -9 555 -9 q 19 127 174 -9 z "},"T":{"ha":694,"x_min":3,"x_max":694,"o":"m 273 -1 l 273 854 l 3 854 l 3 987 l 694 987 l 694 854 l 423 854 l 423 -1 l 273 -1 z "},"U":{"ha":875,"x_min":87,"x_max":790,"o":"m 87 334 l 87 987 l 237 987 l 237 351 q 295 194 237 248 q 439 140 353 140 q 582 194 524 140 q 640 351 640 248 l 640 987 l 790 987 l 790 334 q 688 85 790 179 q 439 -9 585 -9 q 190 85 292 -9 q 87 334 87 179 z "},"V":{"ha":772,"x_min":3,"x_max":772,"o":"m 329 -1 l 3 987 l 161 987 l 386 235 l 389 235 l 614 987 l 772 987 l 446 -1 l 329 -1 z "},"W":{"ha":1155,"x_min":16,"x_max":1141,"o":"m 264 -1 l 16 987 l 175 987 l 330 285 l 333 285 l 525 987 l 633 987 l 825 285 l 827 285 l 983 987 l 1141 987 l 894 -1 l 769 -1 l 580 711 l 577 711 l 389 -1 l 264 -1 z "},"X":{"ha":744,"x_min":-12,"x_max":760,"o":"m 590 -1 l 374 367 l 157 -1 l -12 -1 l 290 506 l 7 987 l 176 987 l 374 645 l 570 987 l 740 987 l 456 506 l 760 -1 l 590 -1 z "},"Y":{"ha":694,"x_min":-19,"x_max":716,"o":"m 277 -1 l 277 406 l -19 987 l 138 987 l 349 549 l 558 987 l 716 987 l 419 406 l 419 -1 l 277 -1 z "},"Z":{"ha":720,"x_min":45,"x_max":677,"o":"m 45 -1 l 45 124 l 494 854 l 64 854 l 64 987 l 677 987 l 677 875 l 227 140 l 677 140 l 677 -1 l 45 -1 z "},"!":{"ha":358,"x_min":92,"x_max":269,"o":"m 144 243 l 92 987 l 269 987 l 215 243 l 144 243 m 109 -1 l 109 140 l 251 140 l 251 -1 l 109 -1 z "},"#":{"ha":667,"x_min":5,"x_max":663,"o":"m 387 393 l 418 593 l 281 593 l 251 393 l 387 393 m 334 -1 l 378 302 l 241 302 l 198 -1 l 90 -1 l 133 302 l 5 302 l 5 393 l 143 393 l 174 593 l 45 593 l 45 685 l 183 685 l 226 987 l 334 987 l 292 685 l 427 685 l 471 987 l 578 987 l 536 685 l 663 685 l 663 593 l 526 593 l 496 393 l 623 393 l 623 302 l 486 302 l 443 -1 l 334 -1 z "},"$":{"ha":667,"x_min":12,"x_max":623,"o":"m 12 123 l 109 225 q 189 157 144 184 q 298 124 233 130 l 298 433 q 113 534 168 464 q 57 711 57 605 q 122 907 57 831 q 298 996 186 982 l 298 1093 l 369 1093 l 369 996 q 604 903 494 994 l 524 798 q 369 863 458 856 l 369 567 q 563 464 503 541 q 623 281 623 388 q 553 86 623 165 q 369 -9 484 7 l 369 -159 l 298 -159 l 298 -9 q 143 28 219 -9 q 12 123 67 66 m 298 584 l 298 863 q 228 821 258 857 q 198 714 198 785 q 219 634 198 665 q 298 584 241 602 m 369 417 l 369 124 q 457 180 432 139 q 481 282 481 221 q 458 367 481 329 q 369 417 435 404 z "},"%":{"ha":720,"x_min":72,"x_max":651,"o":"m 469 213 l 469 138 q 521 70 469 70 q 572 138 572 70 l 572 213 q 521 281 572 281 q 469 213 469 281 m 390 128 l 390 222 q 430 328 390 295 q 521 360 470 360 q 611 328 570 360 q 651 222 651 295 l 651 128 q 611 23 651 55 q 521 -9 570 -9 q 430 23 470 -9 q 390 128 390 55 m 72 764 l 72 859 q 112 964 72 931 q 203 996 152 996 q 293 964 252 996 q 333 859 333 931 l 333 764 q 293 659 333 691 q 203 627 252 627 q 112 659 152 627 q 72 764 72 691 m 151 849 l 151 774 q 203 706 151 706 q 254 774 254 706 l 254 849 q 203 917 254 917 q 151 849 151 917 m 81 -1 l 550 987 l 642 987 l 174 -1 l 81 -1 z "},"&":{"ha":900,"x_min":56,"x_max":903,"o":"m 288 777 q 361 650 288 716 q 455 708 429 676 q 481 777 481 739 q 454 843 481 815 q 385 871 426 871 q 315 843 342 871 q 288 777 288 815 m 736 -1 l 644 99 q 515 22 583 53 q 368 -9 447 -9 q 142 82 228 -9 q 56 295 56 173 q 104 459 56 382 q 244 584 153 536 q 185 672 208 624 q 162 771 162 721 q 223 928 162 861 q 385 996 284 996 q 545 928 484 996 q 606 771 606 861 q 441 550 606 627 l 652 296 q 702 375 682 334 q 739 461 722 416 l 865 412 q 810 299 842 357 q 736 197 777 241 l 903 -1 l 736 -1 m 562 203 l 323 489 q 180 296 180 411 q 235 166 180 218 q 363 115 290 115 q 461 136 409 115 q 562 203 513 156 z "},"'":{"ha":333,"x_min":97,"x_max":239,"o":"m 97 743 l 97 885 l 239 987 l 239 743 l 97 743 z "},"(":{"ha":386,"x_min":85,"x_max":359,"o":"m 359 -142 l 304 -142 q 139 130 194 -20 q 85 422 85 279 q 139 715 85 565 q 304 987 194 865 l 359 987 q 261 714 296 856 q 226 422 226 573 q 261 130 226 271 q 359 -142 296 -11 z "},")":{"ha":386,"x_min":29,"x_max":304,"o":"m 29 987 l 85 987 q 249 715 194 865 q 304 422 304 565 q 249 130 304 279 q 85 -142 194 -20 l 29 -142 q 126 130 91 -11 q 162 422 162 271 q 126 714 162 573 q 29 987 91 856 z "},"*":{"ha":488,"x_min":51,"x_max":440,"o":"m 204 576 l 204 711 l 93 648 l 51 711 l 166 782 l 51 853 l 93 917 l 204 853 l 204 987 l 288 987 l 288 853 l 398 917 l 440 853 l 325 782 l 440 711 l 398 648 l 288 711 l 288 576 l 204 576 z "},"+":{"ha":833,"x_min":66,"x_max":769,"o":"m 363 404 l 363 702 l 472 702 l 472 404 l 769 404 l 769 296 l 472 296 l 472 -1 l 363 -1 l 363 296 l 66 296 l 66 404 l 363 404 z "},",":{"ha":333,"x_min":97,"x_max":239,"o":"m 97 -103 l 97 140 l 239 140 l 239 -1 l 97 -103 z "},".":{"ha":333,"x_min":97,"x_max":239,"o":"m 97 -1 l 97 140 l 239 140 l 239 -1 l 97 -1 z "},"-":{"ha":565,"x_min":75,"x_max":493,"o":"m 75 313 l 75 454 l 493 454 l 493 313 l 75 313 z "},"/":{"ha":462,"x_min":12,"x_max":452,"o":"m 12 -9 l 344 996 l 452 996 l 121 -9 l 12 -9 z "},"o":{"ha":694,"x_min":58,"x_max":638,"o":"m 58 352 q 76 521 58 465 q 134 621 94 576 q 215 682 163 653 q 349 711 266 711 q 481 682 430 711 q 562 621 533 653 q 621 521 603 576 q 638 352 638 465 q 621 181 638 237 q 562 81 603 125 q 481 20 533 48 q 349 -9 430 -9 q 215 20 266 -9 q 134 81 163 48 q 76 181 94 125 q 58 352 58 237 m 497 351 q 489 458 497 427 q 463 518 481 490 q 349 570 425 570 q 235 518 271 570 q 207 458 214 490 q 200 352 200 427 q 207 243 200 275 q 235 184 214 212 q 349 132 271 132 q 463 184 425 132 q 489 243 481 212 q 497 351 497 274 z "},"l":{"ha":358,"x_min":93,"x_max":336,"o":"m 93 170 l 93 987 l 235 987 l 235 181 q 288 132 235 132 l 336 132 l 336 -1 l 273 -1 q 144 37 196 -1 q 93 170 93 75 z "},"k":{"ha":720,"x_min":93,"x_max":711,"o":"m 93 -1 l 93 987 l 235 987 l 235 372 l 237 372 l 508 703 l 677 703 l 435 428 l 711 -1 l 533 -1 l 346 328 l 235 201 l 235 -1 l 93 -1 z "},"b":{"ha":720,"x_min":93,"x_max":655,"o":"m 93 -1 l 93 987 l 235 987 l 235 628 q 318 688 274 665 q 416 711 361 711 q 528 685 481 711 q 605 620 574 659 q 645 531 634 582 q 655 352 655 481 q 645 171 655 222 q 605 82 634 119 q 528 17 574 42 q 416 -9 481 -9 q 235 73 308 -9 l 235 -1 l 93 -1 m 374 570 q 254 498 274 570 q 235 352 235 427 q 254 203 235 275 q 374 132 274 132 q 493 201 473 132 q 513 352 513 269 q 493 501 513 433 q 374 570 473 570 z "},"c":{"ha":616,"x_min":39,"x_max":611,"o":"m 507 206 l 611 113 q 502 25 565 60 q 358 -9 438 -9 q 137 74 236 -9 q 39 351 39 157 q 137 628 39 544 q 358 711 236 711 q 502 677 438 711 q 611 589 565 642 l 507 496 q 363 570 447 570 q 180 351 180 570 q 363 132 180 132 q 507 206 448 132 z "},"d":{"ha":720,"x_min":93,"x_max":655,"o":"m 513 -1 l 513 73 q 332 -9 439 -9 q 220 17 267 -9 q 143 82 173 42 q 103 171 113 119 q 93 352 93 222 q 103 531 93 481 q 143 620 113 582 q 220 685 173 659 q 332 711 267 711 q 430 688 386 711 q 513 628 474 665 l 513 987 l 655 987 l 655 -1 l 513 -1 m 375 570 q 255 501 275 570 q 235 352 235 433 q 255 201 235 269 q 375 132 275 132 q 493 203 473 132 q 513 352 513 275 q 493 498 513 427 q 375 570 473 570 z "},"e":{"ha":691,"x_min":55,"x_max":635,"o":"m 635 298 l 197 298 q 244 168 197 211 q 364 124 291 124 q 519 192 452 124 l 621 104 q 504 17 569 43 q 367 -9 438 -9 q 157 61 258 -9 q 55 349 55 132 q 149 633 55 554 q 345 711 243 711 q 548 631 461 711 q 635 414 635 551 l 635 298 m 197 414 l 494 414 q 449 536 490 494 q 345 578 408 578 q 240 536 282 578 q 197 414 199 494 z "},"f":{"ha":386,"x_min":44,"x_max":398,"o":"m 115 -1 l 115 595 l 44 595 l 44 703 l 115 703 l 115 796 q 170 941 115 895 q 307 987 224 987 l 398 987 l 398 854 l 318 854 q 256 796 256 854 l 256 703 l 398 703 l 398 595 l 256 595 l 256 -1 l 115 -1 z "},"h":{"ha":745,"x_min":93,"x_max":655,"o":"m 93 -1 l 93 987 l 235 987 l 235 628 l 237 628 q 420 711 303 711 q 579 649 503 711 q 655 467 655 587 l 655 -1 l 513 -1 l 513 418 q 474 530 513 490 q 375 570 434 570 q 274 530 314 570 q 235 418 235 490 l 235 -1 l 93 -1 z "},"q":{"ha":720,"x_min":68,"x_max":630,"o":"m 488 -286 l 488 74 q 307 -9 402 -9 q 195 17 241 -9 q 118 82 148 42 q 78 170 88 119 q 68 351 68 221 q 78 531 68 481 q 118 620 88 582 q 195 685 148 659 q 307 711 241 711 q 488 629 414 711 l 488 703 l 630 703 l 630 -286 l 488 -286 m 350 132 q 468 203 448 132 q 488 351 488 274 q 468 498 488 427 q 350 570 448 570 q 230 501 250 570 q 210 351 210 432 q 230 201 210 269 q 350 132 250 132 z "},"s":{"ha":667,"x_min":15,"x_max":616,"o":"m 15 117 l 114 214 q 336 124 206 124 q 435 147 396 124 q 475 214 475 170 q 389 283 475 276 l 264 295 q 119 353 176 302 q 61 494 61 404 q 136 656 61 602 q 323 711 212 711 q 481 685 416 711 q 600 616 547 659 l 512 513 q 425 559 470 541 q 323 578 380 578 q 229 554 256 578 q 203 493 203 530 q 222 450 203 470 q 296 427 242 431 l 412 418 q 569 351 522 411 q 616 208 616 291 q 532 47 616 104 q 325 -9 447 -9 q 15 117 149 -9 z "},"z":{"ha":616,"x_min":47,"x_max":572,"o":"m 47 -1 l 47 111 l 399 578 l 66 578 l 66 703 l 572 703 l 572 591 l 219 132 l 572 132 l 572 -1 l 47 -1 z "},"n":{"ha":745,"x_min":93,"x_max":655,"o":"m 93 -1 l 93 703 l 235 703 l 235 628 l 237 628 q 420 711 303 711 q 579 649 503 711 q 655 467 655 587 l 655 -1 l 513 -1 l 513 418 q 474 530 513 490 q 375 570 434 570 q 274 530 314 570 q 235 418 235 490 l 235 -1 l 93 -1 z "},"i":{"ha":333,"x_min":97,"x_max":239,"o":"m 97 -1 l 97 703 l 239 703 l 239 -1 l 97 -1 m 97 846 l 97 987 l 239 987 l 239 846 l 97 846 z "},"m":{"ha":1183,"x_min":101,"x_max":1084,"o":"m 101 -1 l 101 703 l 243 703 l 243 628 l 245 628 q 429 711 313 711 q 546 685 503 711 q 627 620 589 659 q 850 711 711 711 q 1008 649 932 711 q 1084 467 1084 587 l 1084 -1 l 943 -1 l 943 418 q 903 530 943 490 q 804 570 863 570 q 703 530 743 570 q 663 418 663 490 l 663 -1 l 522 -1 l 522 418 q 482 530 522 490 q 383 570 442 570 q 282 530 322 570 q 243 418 243 490 l 243 -1 l 101 -1 z "},"j":{"ha":358,"x_min":-8,"x_max":252,"o":"m 111 -77 l 111 703 l 252 703 l 252 -88 q 194 -231 252 -176 q 47 -286 136 -286 l -8 -286 l -8 -152 l 32 -152 q 111 -77 111 -152 m 111 846 l 111 987 l 252 987 l 252 846 l 111 846 z "},"v":{"ha":616,"x_min":-7,"x_max":626,"o":"m 251 -1 l -7 703 l 143 703 l 308 210 l 311 210 l 476 703 l 626 703 l 368 -1 l 251 -1 z "},"w":{"ha":1002,"x_min":4,"x_max":1001,"o":"m 651 -1 l 504 492 l 501 492 l 354 -1 l 229 -1 l 4 703 l 154 703 l 289 210 l 292 210 l 451 703 l 554 703 l 713 210 l 716 210 l 851 703 l 1001 703 l 776 -1 l 651 -1 z "},"x":{"ha":667,"x_min":15,"x_max":654,"o":"m 255 359 l 24 703 l 194 703 l 334 475 l 475 703 l 644 703 l 414 359 l 654 -1 l 484 -1 l 334 233 l 184 -1 l 15 -1 l 255 359 z "},"y":{"ha":616,"x_min":-8,"x_max":627,"o":"m 244 26 l -8 703 l 141 703 l 308 210 l 311 210 l 477 703 l 627 703 l 325 -146 q 243 -257 295 -228 q 126 -286 191 -286 l 79 -286 l 79 -152 l 121 -152 q 205 -91 184 -152 l 244 26 z "},"p":{"ha":720,"x_min":93,"x_max":655,"o":"m 93 -286 l 93 703 l 235 703 l 235 629 q 416 711 309 711 q 528 685 481 711 q 605 620 574 659 q 645 531 634 582 q 655 351 655 481 q 645 170 655 221 q 605 82 634 119 q 528 17 574 42 q 416 -9 481 -9 q 318 14 361 -9 q 235 74 274 36 l 235 -286 l 93 -286 m 374 132 q 493 201 473 132 q 513 351 513 269 q 493 501 513 432 q 374 570 473 570 q 254 498 274 570 q 235 351 235 427 q 254 203 235 274 q 374 132 274 132 z "},"u":{"ha":745,"x_min":93,"x_max":655,"o":"m 93 235 l 93 703 l 235 703 l 235 283 q 274 172 235 212 q 375 132 314 132 q 474 172 434 132 q 513 283 513 212 l 513 703 l 655 703 l 655 -1 l 513 -1 l 513 74 l 511 74 q 329 -9 445 -9 q 169 53 245 -9 q 93 235 93 115 z "},"r":{"ha":540,"x_min":93,"x_max":568,"o":"m 93 -1 l 93 703 l 235 703 l 235 628 l 237 628 q 420 711 303 711 q 568 657 498 711 l 465 535 q 372 570 419 570 q 277 535 319 570 q 235 422 235 500 l 235 -1 l 93 -1 z "},"t":{"ha":386,"x_min":31,"x_max":346,"o":"m 101 -1 l 101 595 l 31 595 l 31 703 l 101 703 l 101 814 l 243 965 l 243 703 l 346 703 l 346 595 l 243 595 l 243 -1 l 101 -1 z "},":":{"ha":333,"x_min":97,"x_max":239,"o":"m 97 314 l 97 456 l 239 456 l 239 314 l 97 314 m 97 -1 l 97 140 l 239 140 l 239 -1 l 97 -1 z "},";":{"ha":333,"x_min":97,"x_max":239,"o":"m 97 -103 l 97 140 l 239 140 l 239 -1 l 97 -103 m 97 314 l 97 456 l 239 456 l 239 314 l 97 314 z "},"g":{"ha":720,"x_min":68,"x_max":630,"o":"m 488 0 l 488 73 q 307 -9 414 -9 q 191 19 237 -9 q 121 77 144 46 q 79 160 90 116 q 68 351 68 204 q 79 541 68 497 q 121 625 90 585 q 191 683 144 655 q 307 711 237 711 q 488 628 410 711 l 488 703 l 630 703 l 630 16 q 537 -218 630 -143 q 325 -294 445 -294 q 192 -261 257 -294 q 80 -176 127 -229 l 190 -88 q 251 -133 216 -114 q 328 -152 287 -152 q 443 -113 398 -152 q 488 0 488 -73 m 210 351 q 214 238 210 266 q 237 186 218 210 q 279 150 252 168 q 350 132 307 132 q 419 150 391 132 q 461 186 446 168 q 484 238 479 210 q 488 351 488 266 q 484 463 488 435 q 461 515 479 491 q 419 552 446 534 q 350 570 391 570 q 279 552 307 570 q 237 515 252 534 q 214 463 218 491 q 210 351 210 435 z "},"B":{"ha":847,"x_min":105,"x_max":797,"o":"m 105 -1 l 105 987 l 488 987 q 707 913 633 987 q 781 722 781 839 q 751 605 781 661 q 635 510 722 549 l 635 507 q 757 421 717 488 q 797 279 797 355 q 715 75 797 151 q 522 -1 633 -1 l 105 -1 m 486 438 l 255 438 l 255 140 l 486 140 q 608 185 569 140 q 647 289 647 231 q 608 393 647 347 q 486 438 569 438 m 472 854 l 255 854 l 255 571 l 472 571 q 592 612 553 571 q 631 713 631 654 q 592 812 631 770 q 472 854 553 854 z "},"[":{"ha":386,"x_min":101,"x_max":358,"o":"m 101 -142 l 101 987 l 358 987 l 358 896 l 226 896 l 226 -51 l 358 -51 l 358 -142 l 101 -142 z "},"]":{"ha":386,"x_min":31,"x_max":288,"o":"m 162 -51 l 162 896 l 31 896 l 31 987 l 288 987 l 288 -142 l 31 -142 l 31 -51 l 162 -51 z "},"=":{"ha":833,"x_min":66,"x_max":769,"o":"m 66 435 l 66 543 l 769 543 l 769 435 l 66 435 m 66 157 l 66 266 l 769 266 l 769 157 l 66 157 z "},"@":{"ha":1111,"x_min":54,"x_max":1059,"o":"m 365 413 q 398 320 365 356 q 484 283 432 283 q 638 385 574 283 q 701 568 701 487 q 669 653 701 615 q 589 692 637 692 q 428 595 490 692 q 365 413 365 498 m 748 675 l 765 746 l 857 746 l 745 387 q 732 315 732 345 q 764 275 732 275 q 887 375 823 275 q 951 574 951 474 q 848 799 951 710 q 580 888 745 888 q 272 770 382 888 q 162 496 162 652 q 277 214 162 328 q 587 99 392 99 q 794 132 711 99 q 937 228 878 165 l 1029 228 q 838 54 959 116 q 570 -9 716 -9 q 201 133 349 -9 q 54 499 54 275 q 203 857 54 718 q 573 996 352 996 q 916 880 772 996 q 1059 581 1059 763 q 945 299 1059 406 q 743 192 831 192 q 631 281 646 192 l 629 281 q 563 220 600 248 q 454 192 525 192 q 312 254 367 192 q 256 403 256 316 q 348 662 256 541 q 589 783 439 783 q 745 675 700 783 l 748 675 z "},"?":{"ha":643,"x_min":41,"x_max":572,"o":"m 236 243 l 236 334 q 242 405 236 374 q 272 467 249 435 l 395 639 q 430 731 430 686 q 391 821 430 788 q 311 854 351 854 q 221 820 258 854 q 183 703 183 786 l 41 703 l 41 731 q 120 919 41 842 q 304 996 198 996 q 489 924 407 996 q 572 730 572 851 q 528 584 572 645 l 401 410 q 378 323 378 378 l 378 243 l 236 243 m 236 -1 l 236 140 l 378 140 l 378 -1 l 236 -1 z "},"ß":{"ha":745,"x_min":90,"x_max":658,"o":"m 357 535 l 357 668 l 441 668 q 516 750 516 668 q 494 825 516 804 q 372 854 456 857 q 264 830 294 852 q 232 766 234 808 l 232 -1 l 90 -1 l 90 766 q 174 939 90 882 q 386 996 258 996 q 582 932 507 996 q 658 762 658 868 q 557 604 658 647 q 658 450 658 564 l 658 199 q 604 58 658 116 q 463 -1 550 -1 l 375 -1 l 375 132 l 425 132 q 516 206 516 132 l 516 453 q 439 535 516 535 l 357 535 z "},"Ü":{"ha":875,"x_min":87,"x_max":790,"o":"m 87 334 l 87 987 l 237 987 l 237 351 q 295 194 237 248 q 439 140 353 140 q 582 194 524 140 q 640 351 640 248 l 640 987 l 790 987 l 790 334 q 688 85 790 179 q 439 -9 585 -9 q 190 85 292 -9 q 87 334 87 179 m 486 1056 l 486 1206 l 635 1206 l 635 1056 l 486 1056 m 241 1056 l 241 1206 l 391 1206 l 391 1056 l 241 1056 z "},"Ö":{"ha":847,"x_min":72,"x_max":777,"o":"m 72 493 q 81 723 72 671 q 115 818 91 774 q 229 939 150 882 q 425 996 308 996 q 620 939 541 996 q 734 818 699 882 q 768 723 758 774 q 777 493 777 671 q 768 263 777 315 q 734 168 758 212 q 620 47 699 103 q 425 -9 541 -9 q 229 47 308 -9 q 115 168 150 103 q 81 263 91 212 q 72 493 72 315 m 222 493 q 232 295 222 340 q 272 213 243 250 q 333 162 294 183 q 425 140 372 140 q 516 162 477 140 q 577 213 555 183 q 617 295 606 250 q 627 493 627 340 q 617 690 627 645 q 577 774 606 736 q 516 824 555 802 q 425 846 477 846 q 333 824 372 846 q 272 774 294 802 q 232 690 243 736 q 222 493 222 645 m 472 1056 l 472 1206 l 622 1206 l 622 1056 l 472 1056 m 227 1056 l 227 1206 l 378 1206 l 378 1056 l 227 1056 z "},"ä":{"ha":694,"x_min":37,"x_max":604,"o":"m 463 -1 l 463 62 l 459 62 q 286 -9 416 -9 q 102 53 168 -9 q 37 206 37 114 q 95 352 37 290 q 267 414 153 414 l 463 414 l 463 488 q 318 578 463 578 q 184 524 218 578 l 73 608 q 311 711 147 711 q 522 661 441 711 q 604 479 604 610 l 604 -1 l 463 -1 m 463 246 l 463 298 l 293 298 q 170 213 170 298 q 201 151 170 177 q 304 124 232 124 q 427 144 392 124 q 463 246 463 163 m 395 812 l 395 962 l 545 962 l 545 812 l 395 812 m 151 812 l 151 962 l 301 962 l 301 812 l 151 812 z "},"ö":{"ha":694,"x_min":58,"x_max":638,"o":"m 58 352 q 76 521 58 465 q 134 621 94 576 q 215 682 163 653 q 349 711 266 711 q 481 682 430 711 q 562 621 533 653 q 621 521 603 576 q 638 352 638 465 q 621 181 638 237 q 562 81 603 125 q 481 20 533 48 q 349 -9 430 -9 q 215 20 266 -9 q 134 81 163 48 q 76 181 94 125 q 58 352 58 237 m 497 351 q 489 458 497 427 q 463 518 481 490 q 349 570 425 570 q 235 518 271 570 q 207 458 214 490 q 200 352 200 427 q 207 243 200 275 q 235 184 214 212 q 349 132 271 132 q 463 184 425 132 q 489 243 481 212 q 497 351 497 274 m 395 812 l 395 962 l 545 962 l 545 812 l 395 812 m 151 812 l 151 962 l 301 962 l 301 812 l 151 812 z "},"ü":{"ha":745,"x_min":93,"x_max":655,"o":"m 93 235 l 93 703 l 235 703 l 235 283 q 274 172 235 212 q 375 132 314 132 q 474 172 434 132 q 513 283 513 212 l 513 703 l 655 703 l 655 -1 l 513 -1 l 513 74 l 511 74 q 329 -9 445 -9 q 169 53 245 -9 q 93 235 93 115 m 414 812 l 414 962 l 564 962 l 564 812 l 414 812 m 169 812 l 169 962 l 319 962 l 319 812 l 169 812 z "},"L":{"ha":772,"x_min":105,"x_max":737,"o":"m 105 -1 l 105 987 l 255 987 l 255 140 l 737 140 l 737 -1 l 105 -1 z "},"Å":{"ha":934,"x_min":3,"x_max":847,"o":"m 337 1158 q 362 1096 337 1122 q 425 1071 388 1071 q 487 1096 461 1071 q 512 1158 512 1122 q 487 1220 512 1195 q 425 1246 461 1246 q 362 1220 388 1246 q 337 1158 337 1195 m 281 1158 q 323 1259 281 1217 q 425 1301 366 1301 q 526 1259 484 1301 q 568 1158 568 1217 q 526 1057 568 1099 q 425 1015 484 1015 q 323 1057 366 1015 q 281 1158 281 1099 m 688 -1 l 612 220 l 237 220 l 161 -1 l 3 -1 l 362 987 l 487 987 l 847 -1 l 688 -1 m 569 353 l 426 785 l 423 785 l 280 353 l 569 353 z "},"Ä":{"ha":848,"x_min":3,"x_max":847,"o":"m 688 -1 l 612 220 l 237 220 l 161 -1 l 3 -1 l 362 987 l 487 987 l 847 -1 l 688 -1 m 568 353 l 423 785 l 280 353 l 568 353 m 469 1057 l 469 1207 l 618 1207 l 618 1057 l 469 1057 m 224 1057 l 224 1207 l 374 1207 l 374 1057 l 224 1057 z "},"<":{"ha":848,"x_min":66,"x_max":768,"o":"m 66 313 l 66 413 l 768 726 l 768 609 l 191 363 l 768 117 l 768 1 l 66 313 z "},">":{"ha":823,"x_min":66,"x_max":768,"o":"m 66 1 l 66 117 l 644 363 l 66 609 l 66 726 l 768 413 l 768 313 l 66 1 z "},"_":{"ha":694,"x_min":1,"x_max":695,"o":"m 1 -161 l 1 -92 l 695 -92 l 695 -161 l 1 -161 z "},"A":{"ha":865,"x_min":1,"x_max":846,"o":"m 1 0 l 362 989 l 486 989 l 846 0 l 689 0 l 613 223 l 238 223 l 159 0 l 1 0 m 282 355 l 568 355 q 519 499 537 447 q 488 591 501 551 q 461 672 475 631 q 425 784 448 713 q 387 667 401 711 q 360 583 373 623 q 329 492 347 542 q 282 355 312 441 z "},"“":{"ha":463,"x_min":49,"x_max":401,"o":"m 264 743 l 264 885 l 401 987 l 401 743 l 264 743 m 49 743 l 49 885 l 186 987 l 186 743 l 49 743 z "},"„":{"ha":448,"x_min":55,"x_max":408,"o":"m 55 -106 l 55 138 l 192 138 l 192 -3 l 55 -106 m 270 -106 l 270 138 l 408 138 l 408 -3 l 270 -106 z "},"”":{"ha":448,"x_min":55,"x_max":408,"o":"m 55 743 l 55 987 l 192 987 l 192 846 l 55 743 m 270 743 l 270 987 l 408 987 l 408 846 l 270 743 z "},"\"":{"ha":405,"x_min":60,"x_max":347,"o":"m 60 743 l 60 987 l 164 987 l 164 743 l 60 743 m 241 743 l 241 987 l 347 987 l 347 743 l 241 743 z "},"‚":{"ha":271,"x_min":69,"x_max":206,"o":"m 69 -106 l 69 138 l 206 138 l 206 -3 l 69 -106 z "},"‘":{"ha":271,"x_min":69,"x_max":206,"o":"m 69 743 l 69 885 l 206 987 l 206 743 l 69 743 z "},"’":{"ha":271,"x_min":69,"x_max":206,"o":"m 69 743 l 69 987 l 206 987 l 206 846 l 69 743 z "},"–":{"ha":755,"x_min":45,"x_max":720,"o":"m 45 315 l 45 448 l 720 448 l 720 315 l 45 315 z "},"—":{"ha":1383,"x_min":31,"x_max":1381,"o":"m 31 315 l 31 448 l 1381 448 l 1381 315 l 31 315 z "},"\\":{"ha":478,"x_min":28,"x_max":456,"o":"m 351 -12 l 28 996 l 134 996 l 456 -12 l 351 -12 z "},"^":{"ha":753,"x_min":43,"x_max":718,"o":"m 43 391 l 336 987 l 425 987 l 718 391 l 604 391 l 380 871 l 157 391 l 43 391 z "},"`":{"ha":340,"x_min":20,"x_max":324,"o":"m 211 793 l 20 996 l 201 996 l 324 793 l 211 793 z "},"´":{"ha":340,"x_min":20,"x_max":324,"o":"m 20 793 l 144 996 l 324 996 l 133 793 l 20 793 z "},"µ":{"ha":627,"x_min":51,"x_max":597,"o":"m 51 -289 l 51 702 l 189 702 l 189 281 q 227 170 189 210 q 325 130 266 130 q 422 170 384 130 q 460 281 460 210 l 460 702 l 597 702 l 597 -3 l 460 -3 l 460 71 l 457 71 q 280 -12 389 -12 q 189 8 234 -12 l 189 -289 l 51 -289 z "},"®":{"ha":1097,"x_min":68,"x_max":1045,"o":"m 469 709 l 469 542 l 536 542 q 642 554 597 539 q 687 625 684 570 q 647 694 684 676 q 558 709 611 709 l 469 709 m 372 212 l 372 800 l 588 800 q 783 625 783 802 q 742 498 782 538 q 638 453 698 460 l 801 212 l 688 212 l 524 450 l 469 450 l 469 212 l 372 212 m 68 492 q 213 850 71 705 q 557 996 349 994 q 903 850 764 994 q 1045 492 1042 707 q 903 137 1042 276 q 557 -12 766 -8 q 213 137 348 -8 q 68 492 71 277 m 174 492 q 283 203 174 313 q 557 87 389 88 q 832 203 725 88 q 940 492 939 313 q 832 783 939 673 q 557 897 725 895 q 283 783 389 895 q 174 492 174 673 z "},"©":{"ha":1097,"x_min":68,"x_max":1045,"o":"m 726 404 l 823 404 q 578 170 778 173 q 363 264 441 171 q 284 492 284 351 q 361 724 284 637 q 574 814 435 812 q 741 758 673 814 q 823 587 809 703 l 726 587 q 675 679 716 644 q 576 714 635 714 q 439 651 487 713 q 389 494 389 587 q 441 340 389 405 q 578 270 491 271 q 678 308 638 270 q 726 404 717 342 m 68 492 q 213 850 71 706 q 557 996 349 994 q 903 850 764 994 q 1045 492 1042 707 q 903 137 1042 276 q 557 -12 766 -8 q 213 137 348 -8 q 68 492 71 277 m 174 492 q 283 203 174 313 q 557 87 389 88 q 832 203 725 88 q 940 492 939 313 q 832 783 939 673 q 557 897 725 895 q 283 783 389 895 q 174 492 174 673 z "},"«":{"ha":595,"x_min":39,"x_max":568,"o":"m 39 382 l 314 663 l 314 521 l 172 382 l 314 242 l 314 101 l 39 382 m 293 382 l 568 663 l 568 521 l 425 382 l 568 242 l 568 101 l 293 382 z "},"»":{"ha":587,"x_min":31,"x_max":559,"o":"m 285 101 l 285 242 l 422 382 l 285 521 l 285 663 l 559 382 l 285 101 m 31 101 l 31 242 l 168 382 l 31 521 l 31 663 l 306 382 l 31 101 z "},"➆":{"ha":1112,"x_min":77,"x_max":1059,"o":"m 568 982 q 914 838 768 982 q 1059 492 1059 693 q 916 146 1059 292 q 568 1 772 1 q 222 144 368 1 q 77 492 77 290 q 222 838 77 692 q 568 982 365 982 m 568 65 q 870 190 745 65 q 995 492 995 315 q 870 793 995 668 q 568 918 745 918 q 267 793 393 918 q 142 492 142 667 q 267 190 142 315 q 568 65 392 65 m 398 785 l 766 785 l 766 758 l 482 201 l 404 243 l 637 701 l 482 701 l 482 651 l 398 651 l 398 785 z "},"➅":{"ha":1112,"x_min":77,"x_max":1059,"o":"m 568 982 q 914 838 768 982 q 1059 492 1059 693 q 916 146 1059 292 q 568 1 772 1 q 222 144 368 1 q 77 492 77 290 q 222 838 77 692 q 568 982 365 982 m 568 65 q 870 190 745 65 q 995 492 995 315 q 870 793 995 668 q 568 918 745 918 q 267 793 393 918 q 142 492 142 667 q 267 190 142 315 q 568 65 392 65 m 675 762 l 522 544 q 539 547 531 546 q 555 551 547 549 q 585 553 570 553 q 703 506 659 553 q 748 385 748 460 q 693 252 748 301 q 553 201 637 201 q 423 255 469 201 q 375 393 375 307 q 378 439 375 416 q 391 481 381 460 q 410 522 397 498 q 437 565 425 549 l 597 795 l 675 762 m 562 286 q 626 314 602 286 q 650 383 650 339 q 627 454 650 425 q 562 482 604 482 q 497 454 518 482 q 473 383 473 426 q 497 313 473 340 q 562 286 522 286 z "},"➄":{"ha":1112,"x_min":77,"x_max":1059,"o":"m 568 982 q 914 838 768 982 q 1059 492 1059 693 q 916 146 1059 292 q 568 1 772 1 q 222 144 368 1 q 77 492 77 290 q 222 838 77 692 q 568 982 365 982 m 568 65 q 870 190 745 65 q 995 492 995 315 q 870 793 995 668 q 568 918 745 918 q 267 793 393 918 q 142 492 142 667 q 267 190 142 315 q 568 65 392 65 m 435 353 q 490 300 465 314 q 543 286 514 286 q 621 318 589 286 q 652 401 652 353 q 620 484 652 450 q 537 517 588 517 q 484 506 505 517 q 430 473 464 498 l 403 473 l 472 785 l 718 785 l 718 701 l 536 701 l 509 580 q 574 588 541 588 q 696 536 650 588 q 743 408 743 488 q 686 259 743 317 q 537 201 629 201 q 449 222 485 201 q 374 289 411 245 l 435 353 z "},"➃":{"ha":1112,"x_min":77,"x_max":1059,"o":"m 568 982 q 914 838 768 982 q 1059 492 1059 693 q 916 146 1059 292 q 568 1 772 1 q 222 144 368 1 q 77 492 77 290 q 222 838 77 692 q 568 982 365 982 m 568 65 q 870 190 745 65 q 995 492 995 315 q 870 793 995 668 q 568 918 745 918 q 267 793 393 918 q 142 492 142 667 q 267 190 142 315 q 568 65 392 65 m 561 336 l 316 336 l 316 366 l 603 795 l 645 795 l 645 406 l 720 406 l 720 336 l 645 336 l 645 212 l 561 212 l 561 336 m 561 605 l 429 406 l 561 406 l 561 605 z "},"➂":{"ha":1112,"x_min":77,"x_max":1059,"o":"m 568 982 q 914 838 768 982 q 1059 492 1059 693 q 916 146 1059 292 q 568 1 772 1 q 222 144 368 1 q 77 492 77 290 q 222 838 77 692 q 568 982 365 982 m 568 65 q 870 190 745 65 q 995 492 995 315 q 870 793 995 668 q 568 918 745 918 q 267 793 393 918 q 142 492 142 667 q 267 190 142 315 q 568 65 392 65 m 516 541 q 602 562 567 541 q 635 629 635 581 q 612 687 635 662 q 551 711 589 711 q 494 688 514 711 q 474 629 474 665 l 390 629 q 434 750 390 704 q 562 795 481 795 q 675 751 632 795 q 720 640 720 707 q 699 563 720 593 q 639 509 677 531 q 733 370 733 469 q 683 247 733 292 q 554 201 632 201 q 429 241 473 201 q 383 358 383 281 l 467 358 q 472 326 467 338 q 490 300 477 312 q 551 278 517 278 q 616 302 591 278 q 643 366 643 325 q 607 441 643 418 q 516 463 570 463 l 516 541 z "},"➁":{"ha":1112,"x_min":77,"x_max":1059,"o":"m 568 982 q 914 838 768 982 q 1059 492 1059 693 q 916 146 1059 292 q 568 1 772 1 q 222 144 368 1 q 77 492 77 290 q 222 838 77 692 q 568 982 365 982 m 568 65 q 870 190 745 65 q 995 492 995 315 q 870 793 995 668 q 568 918 745 918 q 267 793 393 918 q 142 492 142 667 q 267 190 142 315 q 568 65 392 65 m 740 296 l 740 212 l 379 212 l 379 234 l 584 478 q 633 548 616 515 q 648 616 648 583 q 625 684 648 656 q 561 711 602 711 q 488 681 512 711 q 467 599 467 648 l 382 599 q 429 743 382 692 q 562 795 474 795 q 689 749 643 795 q 740 628 740 704 q 635 404 740 526 l 541 296 l 740 296 z "},"➀":{"ha":1112,"x_min":77,"x_max":1059,"o":"m 568 982 q 914 838 768 982 q 1059 492 1059 693 q 916 146 1059 292 q 568 1 772 1 q 222 144 368 1 q 77 492 77 290 q 222 838 77 692 q 568 982 365 982 m 568 65 q 870 190 745 65 q 995 492 995 315 q 870 793 995 668 q 568 918 745 918 q 267 793 393 918 q 142 492 142 667 q 267 190 142 315 q 568 65 392 65 m 530 701 l 416 701 l 469 785 l 614 785 l 614 212 l 530 212 l 530 701 z "},"§":{"ha":591,"x_min":35,"x_max":564,"o":"m 64 -17 l 185 -17 q 220 -102 190 -70 q 302 -137 248 -136 q 379 -108 350 -137 q 409 -28 409 -81 q 385 47 410 22 q 273 96 357 71 l 222 115 q 74 210 111 152 q 37 371 35 266 q 63 517 35 462 q 173 605 90 570 q 81 770 78 661 q 146 933 82 869 q 299 994 207 993 q 457 937 394 994 q 523 755 522 877 l 402 755 q 376 838 402 807 q 299 869 351 869 q 227 841 249 867 q 202 781 202 814 q 233 716 202 736 q 342 667 267 690 q 509 580 454 637 q 563 387 563 523 q 541 254 564 304 q 431 158 515 201 q 517 85 493 132 q 538 -20 538 37 q 467 -202 536 -136 q 292 -271 397 -268 q 134 -201 199 -268 q 64 -17 65 -135 m 300 223 q 402 274 378 226 q 425 382 427 310 q 420 454 425 433 q 397 496 412 479 q 360 527 384 515 q 300 538 334 538 q 203 496 230 535 q 181 454 186 477 q 174 382 174 428 q 198 274 173 309 q 237 239 209 256 q 300 223 262 223 z "},"÷":{"ha":772,"x_min":53,"x_max":736,"o":"m 53 294 l 53 403 l 736 403 l 736 294 l 53 294 m 304 637 q 331 703 304 676 q 394 730 356 730 q 459 703 433 730 q 485 637 485 676 q 459 572 485 598 q 394 544 434 544 q 331 572 355 544 q 304 637 304 599 m 304 60 q 331 127 304 100 q 394 153 356 153 q 459 127 433 153 q 485 60 485 101 q 459 -5 485 21 q 394 -33 433 -31 q 331 -5 356 -31 q 304 60 304 21 z "},"¼":{"ha":964,"x_min":58,"x_max":919,"o":"m 121 -27 l 702 1011 l 791 1011 l 210 -27 l 121 -27 m 496 83 l 496 182 l 706 587 l 819 587 l 614 182 l 762 182 l 762 336 l 874 336 l 874 182 l 919 182 l 919 83 l 874 83 l 874 -3 l 762 -3 l 762 83 l 496 83 m 147 396 l 147 873 l 58 812 l 58 929 l 147 990 l 260 990 l 260 396 l 147 396 z "},"½":{"ha":973,"x_min":58,"x_max":927,"o":"m 87 -27 l 668 1011 l 762 1011 l 177 -27 l 87 -27 m 538 -3 l 538 96 l 784 357 q 814 425 814 387 q 794 477 814 457 q 735 496 773 496 q 656 410 662 495 l 543 410 q 598 546 543 494 q 731 596 648 595 q 873 547 818 595 q 927 425 926 496 q 919 369 927 395 q 882 313 908 341 l 675 96 l 927 96 l 927 -3 l 538 -3 m 147 396 l 147 873 l 58 812 l 58 929 l 147 990 l 260 990 l 260 396 l 147 396 z "},"¿":{"ha":589,"x_min":46,"x_max":562,"o":"m 241 378 l 241 458 l 378 458 l 378 367 q 373 297 378 330 q 342 233 365 265 l 218 60 q 183 -32 183 12 q 222 -121 184 -88 q 299 -155 258 -154 q 388 -121 352 -155 q 424 -3 422 -85 l 562 -3 l 562 -31 q 486 -219 560 -144 q 307 -297 412 -296 q 127 -224 205 -296 q 46 -30 47 -151 q 91 116 46 57 l 217 290 q 241 378 242 326 m 241 561 l 241 702 l 378 702 l 378 561 l 241 561 z "},"¶":{"ha":670,"x_min":41,"x_max":638,"o":"m 324 -260 l 324 462 q 121 539 197 464 q 41 721 41 609 q 352 987 45 988 l 638 987 l 638 -260 l 534 -260 l 534 897 l 429 897 l 429 -260 l 324 -260 z "},"±":{"ha":757,"x_min":39,"x_max":721,"o":"m 328 189 l 328 391 l 39 391 l 39 499 l 328 499 l 328 701 l 433 701 l 433 499 l 721 499 l 721 391 l 433 391 l 433 189 l 328 189 m 39 -3 l 39 105 l 721 105 l 721 -3 l 39 -3 z "},"·":{"ha":210,"x_min":20,"x_max":201,"o":"m 20 403 q 46 469 20 443 q 110 496 71 496 q 174 469 149 496 q 201 403 201 443 q 174 338 201 364 q 110 310 149 310 q 46 338 71 310 q 20 403 20 364 z "},"³":{"ha":452,"x_min":24,"x_max":431,"o":"m 170 657 l 170 748 l 213 748 q 286 771 257 748 q 311 825 311 789 q 290 877 311 857 q 231 897 265 897 q 175 880 201 897 q 140 823 151 862 l 27 823 q 86 947 35 901 q 218 996 136 994 q 372 945 318 994 q 423 827 423 894 q 410 760 423 791 q 353 703 393 728 q 414 645 394 680 q 431 573 431 611 q 374 440 429 490 q 222 391 319 391 q 24 557 58 389 l 138 557 q 229 490 158 492 q 294 513 269 490 q 318 570 317 533 q 290 635 317 610 q 221 657 262 657 l 170 657 z "},"²":{"ha":433,"x_min":24,"x_max":413,"o":"m 24 396 l 24 495 l 269 758 q 300 825 300 787 q 280 877 300 857 q 222 897 258 897 q 141 810 148 895 l 28 810 q 83 946 28 895 q 217 996 134 994 q 359 947 304 994 q 413 824 412 896 q 405 769 413 794 q 369 713 393 740 l 162 495 l 413 495 l 413 396 l 24 396 z "},"°":{"ha":431,"x_min":25,"x_max":410,"o":"m 25 797 q 81 939 26 882 q 218 996 137 994 q 355 939 301 994 q 410 798 409 882 q 355 656 409 713 q 218 598 301 599 q 81 656 137 599 q 25 797 26 713 m 93 797 q 132 707 93 743 q 218 669 165 669 q 307 707 271 669 q 342 797 341 743 q 307 889 341 851 q 218 925 271 924 q 132 889 165 924 q 93 797 93 852 z "},"¬":{"ha":772,"x_min":53,"x_max":735,"o":"m 630 146 l 630 433 l 53 433 l 53 543 l 735 543 l 735 146 l 630 146 z "},"­":{"ha":475,"x_min":47,"x_max":452,"o":"m 47 311 l 47 452 l 452 452 l 452 311 l 47 311 z "},"¸":{"ha":342,"x_min":24,"x_max":326,"o":"m 159 -3 l 228 -3 l 168 -86 l 171 -86 q 208 -81 187 -81 q 296 -111 264 -81 q 326 -186 326 -142 q 277 -284 325 -253 q 161 -317 230 -317 q 24 -284 96 -316 l 48 -226 q 143 -247 96 -245 q 222 -188 218 -247 q 203 -149 222 -160 q 155 -136 184 -136 q 102 -151 128 -135 l 71 -125 l 159 -3 z "},"¯":{"ha":435,"x_min":27,"x_max":415,"o":"m 27 842 l 27 932 l 415 932 l 415 842 l 27 842 z "},"¹":{"ha":299,"x_min":45,"x_max":246,"o":"m 134 396 l 134 873 l 45 812 l 45 929 l 134 990 l 246 990 l 246 396 l 134 396 z "},"º":{"ha":442,"x_min":24,"x_max":421,"o":"m 24 779 q 33 875 24 840 q 67 935 41 908 q 223 996 124 996 q 378 935 320 996 q 414 875 404 907 q 421 779 421 840 q 414 685 421 718 q 378 624 404 652 q 222 562 319 562 q 67 624 123 562 q 33 684 41 649 q 24 779 24 718 m 129 779 q 149 686 125 713 q 222 653 173 653 q 296 686 272 653 q 314 724 310 705 q 317 779 317 741 q 296 871 317 844 q 224 905 271 903 q 149 871 174 903 q 134 836 135 855 q 129 779 129 818 z "},"×":{"ha":700,"x_min":39,"x_max":667,"o":"m 39 102 l 280 349 l 39 597 l 113 674 l 353 425 l 591 674 l 667 597 l 417 349 l 667 102 l 591 25 l 353 275 l 113 25 l 39 102 z "},"➇":{"ha":1108,"x_min":66,"x_max":1056,"o":"m 561 987 q 909 842 763 987 q 1056 493 1056 696 q 911 144 1056 290 q 561 -1 768 -1 q 212 143 357 -1 q 66 493 66 289 q 212 842 66 695 q 561 987 356 987 m 561 62 q 865 189 739 62 q 991 493 991 313 q 865 797 991 671 q 561 923 739 923 q 257 797 383 923 q 131 493 131 671 q 257 189 131 315 q 561 62 383 62 m 508 803 l 614 803 l 857 220 l 744 220 l 694 345 l 429 345 l 380 220 l 267 220 l 508 803 m 561 684 l 461 429 l 661 429 l 561 684 z "},"➈":{"ha":1108,"x_min":66,"x_max":1056,"o":"m 561 987 q 909 842 763 987 q 1056 493 1056 696 q 911 144 1056 290 q 561 -1 768 -1 q 212 143 357 -1 q 66 493 66 289 q 212 842 66 695 q 561 987 356 987 m 561 62 q 865 189 739 62 q 991 493 991 313 q 865 797 991 671 q 561 923 739 923 q 257 797 383 923 q 131 493 131 671 q 257 189 131 315 q 561 62 383 62 m 338 787 l 617 787 q 737 745 696 787 q 778 650 778 703 q 759 571 778 597 q 688 522 738 544 q 777 483 743 522 q 810 385 810 442 q 768 269 810 317 q 616 220 724 220 l 338 220 l 338 787 m 445 313 l 610 313 q 705 391 705 313 q 677 452 705 430 q 606 471 648 471 l 445 471 l 445 313 m 445 556 l 578 556 q 648 574 623 556 q 672 631 672 591 q 652 682 672 665 q 578 696 629 696 l 445 696 l 445 556 z "},"➉":{"ha":1108,"x_min":66,"x_max":1056,"o":"m 561 987 q 909 842 763 987 q 1056 493 1056 696 q 911 144 1056 290 q 561 -1 768 -1 q 212 143 357 -1 q 66 493 66 289 q 212 842 66 695 q 561 987 356 987 m 561 62 q 865 189 739 62 q 991 493 991 313 q 865 797 991 671 q 561 923 739 923 q 257 797 383 923 q 131 493 131 671 q 257 189 131 315 q 561 62 383 62 m 820 408 q 747 276 800 319 q 652 219 694 233 q 561 205 610 205 q 355 288 434 205 q 276 505 276 372 q 354 720 276 637 q 561 803 431 803 q 723 759 659 803 q 815 629 787 715 l 705 629 q 648 691 686 669 q 561 712 614 712 q 429 650 476 712 q 381 505 381 589 q 428 359 381 420 q 561 297 473 297 q 655 326 616 297 q 713 408 694 354 l 820 408 z "},"ª":{"ha":462,"x_min":26,"x_max":420,"o":"m 315 568 l 315 608 l 312 608 q 205 562 286 562 q 68 602 109 562 q 26 688 26 639 q 64 786 26 747 q 164 825 98 825 l 315 825 l 315 850 q 286 898 314 889 q 224 905 259 905 q 155 899 177 905 q 124 873 135 891 l 54 934 q 121 985 83 971 q 220 996 157 996 q 420 857 416 1000 l 420 568 l 315 568 m 315 716 l 315 742 l 208 742 q 131 695 132 743 q 140 676 131 685 q 159 663 146 667 q 214 653 184 653 q 299 667 278 653 q 315 716 316 681 z "},"¡":{"ha":250,"x_min":36,"x_max":209,"o":"m 36 -289 l 89 457 l 157 457 l 209 -289 l 36 -289 m 54 561 l 54 702 l 191 702 l 191 561 l 54 561 z "},"¢":{"ha":634,"x_min":50,"x_max":604,"o":"m 332 130 l 332 569 q 186 349 187 553 q 332 130 187 146 m 332 -138 l 332 -12 q 137 83 218 -3 q 50 349 50 169 q 137 617 50 530 q 332 711 218 703 l 332 838 l 385 838 l 385 711 q 604 588 529 689 l 504 495 q 385 569 462 551 l 385 130 q 504 203 462 147 l 604 111 q 385 -12 529 9 l 385 -138 l 332 -138 z "},"£":{"ha":693,"x_min":53,"x_max":661,"o":"m 53 414 l 53 505 l 129 505 q 80 715 79 616 q 155 922 81 847 q 337 996 224 994 q 544 917 476 994 q 610 711 610 838 l 473 711 q 347 863 465 863 q 218 712 219 859 q 267 505 218 598 l 495 505 l 495 414 l 301 414 q 326 292 325 348 q 284 141 325 216 q 361 132 325 137 q 439 121 404 121 q 507 133 469 121 q 573 168 540 142 l 661 58 q 560 3 615 20 q 461 -12 503 -12 q 331 1 411 -9 q 192 16 245 14 q 71 -12 136 16 l 71 121 q 173 149 119 148 q 197 268 195 210 q 188 337 197 296 q 176 375 182 355 q 164 414 170 394 l 53 414 z "},"¤":{"ha":676,"x_min":38,"x_max":644,"o":"m 38 251 l 104 320 q 53 492 54 382 q 104 665 54 600 l 38 732 l 109 804 l 176 736 q 342 790 235 787 q 508 739 444 789 l 574 804 l 644 732 l 578 664 q 632 492 630 598 q 580 319 630 382 l 644 251 l 574 178 l 508 247 q 342 193 444 193 q 250 209 292 193 q 176 247 203 225 l 109 178 l 38 251 m 157 492 q 209 347 157 400 q 343 292 260 292 q 477 347 427 292 q 528 492 528 399 q 343 691 522 686 q 157 492 161 687 z "},"¥":{"ha":762,"x_min":40,"x_max":726,"o":"m 318 -3 l 318 219 l 116 219 l 116 311 l 318 311 l 318 404 l 300 441 l 116 441 l 116 533 l 256 533 l 40 987 l 186 987 l 382 547 l 580 987 l 726 987 l 509 533 l 650 533 l 650 441 l 466 441 l 448 404 l 448 311 l 650 311 l 650 219 l 448 219 l 448 -3 l 318 -3 z "},"¦":{"ha":227,"x_min":59,"x_max":164,"o":"m 59 -12 l 59 365 l 164 365 l 164 -12 l 59 -12 m 59 619 l 59 996 l 164 996 l 164 619 l 59 619 z "},"{":{"ha":408,"x_min":37,"x_max":389,"o":"m 37 376 l 37 467 q 83 481 64 467 q 116 517 104 493 q 142 635 142 566 l 142 833 q 183 947 143 907 q 274 987 219 987 l 389 987 l 389 897 l 322 897 q 276 862 290 895 q 263 781 263 828 l 263 601 q 250 524 263 556 q 218 470 238 492 q 154 423 177 428 l 154 420 q 184 409 164 418 q 218 376 202 397 q 250 322 238 355 q 263 240 263 286 l 263 62 q 276 -16 263 16 q 322 -54 290 -51 l 389 -54 l 389 -144 l 274 -144 q 183 -102 220 -143 q 142 9 143 -61 l 142 205 q 116 325 142 278 q 37 376 90 374 z "},"|":{"ha":227,"x_min":59,"x_max":164,"o":"m 59 -12 l 59 996 l 164 996 l 164 -12 l 59 -12 z "},"}":{"ha":227,"x_min":18,"x_max":373,"o":"m 18 -144 l 18 -54 l 84 -54 q 130 -16 116 -52 q 144 62 144 17 l 144 241 q 158 321 144 287 q 189 376 170 355 q 248 420 228 416 l 248 423 q 224 437 235 430 q 189 467 208 446 q 158 522 170 488 q 144 602 144 555 l 144 781 q 130 862 144 827 q 83 897 115 895 l 18 897 l 18 987 l 132 987 q 227 947 188 987 q 264 833 263 905 l 264 637 q 293 519 264 566 q 370 467 319 471 l 373 376 q 294 326 321 373 q 264 208 264 279 l 264 9 q 227 -102 263 -60 q 133 -144 189 -143 l 18 -144 z "},"~":{"ha":696,"x_min":41,"x_max":664,"o":"m 90 243 l 41 329 q 104 412 62 374 q 210 450 144 448 q 284 437 246 450 q 360 404 321 422 q 433 370 391 388 q 497 353 470 353 q 566 387 537 354 q 616 454 593 415 l 664 367 q 604 286 642 320 q 496 247 565 248 q 425 261 461 247 q 346 292 380 279 q 273 326 313 309 q 209 342 237 340 q 141 312 170 340 q 90 243 109 273 z "},"¾":{"ha":1037,"x_min":66,"x_max":988,"o":"m 228 -27 l 812 1011 l 901 1011 l 319 -27 l 228 -27 m 567 83 l 566 182 l 775 588 l 889 588 l 684 182 l 831 182 l 831 336 l 944 336 l 944 182 l 988 182 l 988 83 l 944 83 l 944 -3 l 831 -3 l 831 83 l 567 83 m 212 657 l 212 748 l 255 748 q 327 771 299 748 q 353 825 353 789 q 332 877 353 856 q 273 897 307 897 q 216 880 243 897 q 182 823 191 861 l 68 823 q 127 947 77 901 q 260 996 178 994 q 413 945 360 994 q 465 827 465 893 q 452 760 465 793 q 395 703 435 728 q 456 645 437 680 q 473 573 473 612 q 416 440 471 491 q 264 391 361 391 q 66 557 99 389 l 179 557 q 271 490 199 491 q 336 513 311 490 q 360 570 358 533 q 332 635 358 610 q 263 657 305 657 l 212 657 z "},"•":{"ha":551,"x_min":45,"x_max":526,"o":"m 45 492 q 117 667 46 597 q 286 739 184 738 q 456 667 388 738 q 526 492 524 596 q 456 318 524 388 q 286 244 389 246 q 117 318 184 246 q 45 492 46 387 z "},"™":{"ha":1298,"x_min":58,"x_max":1236,"o":"m 224 414 l 224 888 l 58 888 l 58 987 l 497 987 l 497 888 l 330 888 l 330 414 l 224 414 m 1132 414 l 1132 880 l 1129 880 l 951 414 l 882 414 l 705 880 l 702 880 l 702 414 l 597 414 l 597 987 l 762 987 l 916 564 l 1072 987 l 1236 987 l 1236 414 l 1132 414 z "},"˜":{"ha":543,"x_min":37,"x_max":517,"o":"m 117 806 l 37 806 q 88 925 47 880 q 189 968 127 968 q 239 961 216 968 q 286 943 268 952 q 332 925 309 932 q 372 916 352 916 q 412 928 393 914 q 436 977 429 940 l 517 977 q 473 865 507 911 q 369 815 437 816 q 319 825 342 815 q 267 841 292 831 q 174 867 215 865 q 139 856 161 867 q 117 806 117 841 z "},"a":{"ha":667,"x_min":53,"x_max":603,"o":"m 466 -3 l 466 59 l 463 59 q 404 6 444 22 q 294 -12 362 -12 q 118 51 178 -9 q 53 203 53 111 q 109 351 53 292 q 275 412 165 411 l 466 412 l 466 487 q 326 578 467 581 q 244 567 277 578 q 196 523 212 553 l 87 608 q 319 711 166 713 q 525 661 447 712 q 603 479 602 607 l 603 -3 l 466 -3 m 466 244 l 466 296 l 301 296 q 182 210 180 292 q 213 149 182 175 q 311 121 243 121 q 433 142 398 120 q 466 244 466 165 z "},"à":{"ha":667,"x_min":53,"x_max":603,"o":"m 466 -3 l 466 59 l 463 59 q 404 6 444 22 q 294 -12 362 -12 q 118 51 178 -9 q 53 203 53 111 q 109 351 53 292 q 275 412 165 411 l 466 412 l 466 487 q 326 578 467 581 q 244 567 277 578 q 196 523 212 553 l 87 608 q 319 711 166 713 q 525 661 447 712 q 603 479 602 607 l 603 -3 l 466 -3 m 466 244 l 466 296 l 301 296 q 182 210 180 292 q 213 149 182 175 q 311 121 243 121 q 433 142 398 120 q 466 244 466 165 m 372 793 l 181 996 l 362 996 l 486 793 l 372 793 z "},"á":{"ha":667,"x_min":53,"x_max":603,"o":"m 466 -3 l 466 59 l 463 59 q 404 6 444 22 q 294 -12 362 -12 q 118 51 178 -9 q 53 203 53 111 q 109 351 53 292 q 275 412 165 411 l 466 412 l 466 487 q 326 578 467 581 q 244 567 277 578 q 196 523 212 553 l 87 608 q 319 711 166 713 q 525 661 447 712 q 603 479 602 607 l 603 -3 l 466 -3 m 466 244 l 466 296 l 301 296 q 182 210 180 292 q 213 149 182 175 q 311 121 243 121 q 433 142 398 120 q 466 244 466 165 m 181 793 l 305 996 l 486 996 l 294 793 l 181 793 z "},"â":{"ha":667,"x_min":53,"x_max":603,"o":"m 90 787 l 290 945 l 379 945 l 582 787 l 469 787 l 328 862 l 203 787 l 90 787 m 466 -3 l 466 59 l 463 59 q 404 6 444 22 q 294 -12 362 -12 q 118 51 178 -9 q 53 203 53 111 q 109 351 53 292 q 275 412 165 411 l 466 412 l 466 487 q 326 578 467 581 q 244 567 277 578 q 196 523 212 553 l 87 608 q 319 711 166 713 q 525 661 447 712 q 603 479 602 607 l 603 -3 l 466 -3 m 466 244 l 466 296 l 301 296 q 182 210 180 292 q 213 149 182 175 q 311 121 243 121 q 433 142 398 120 q 466 244 466 165 z "},"ã":{"ha":667,"x_min":53,"x_max":603,"o":"m 466 -3 l 466 59 l 463 59 q 404 6 444 22 q 294 -12 362 -12 q 118 51 178 -9 q 53 203 53 111 q 109 351 53 292 q 275 412 165 411 l 466 412 l 466 487 q 326 578 467 581 q 244 567 277 578 q 196 523 212 553 l 87 608 q 319 711 166 713 q 525 661 447 712 q 603 479 602 607 l 603 -3 l 466 -3 m 466 244 l 466 296 l 301 296 q 182 210 180 292 q 213 149 182 175 q 311 121 243 121 q 433 142 398 120 q 466 244 466 165 m 174 806 l 94 806 q 145 925 104 880 q 246 968 184 968 q 296 961 273 968 q 343 943 325 952 q 389 925 366 932 q 429 916 409 916 q 469 928 450 914 q 493 977 486 940 l 574 977 q 530 865 564 911 q 426 815 494 816 q 376 825 399 815 q 324 841 349 831 q 231 867 272 865 q 196 856 218 867 q 174 806 174 841 z "},"å":{"ha":667,"x_min":53,"x_max":603,"o":"m 466 -3 l 466 59 l 463 59 q 404 6 444 22 q 294 -12 362 -12 q 118 51 178 -9 q 53 203 53 111 q 109 351 53 292 q 275 412 165 411 l 466 412 l 466 487 q 326 578 467 581 q 244 567 277 578 q 196 523 212 553 l 87 608 q 319 711 166 713 q 525 661 447 712 q 603 479 602 607 l 603 -3 l 466 -3 m 466 244 l 466 296 l 301 296 q 182 210 180 292 q 213 149 182 175 q 311 121 243 121 q 433 142 398 120 q 466 244 466 165 z "},"è":{"ha":694,"x_min":58,"x_max":638,"o":"m 638 298 l 200 298 q 247 168 200 211 q 368 124 294 124 q 522 192 455 124 l 625 104 q 507 17 572 43 q 370 -9 441 -9 q 160 61 262 -9 q 58 349 58 132 q 152 633 58 554 q 349 711 246 711 q 551 631 465 711 q 638 414 638 551 l 638 298 m 200 414 l 497 414 q 452 536 494 494 q 349 578 411 578 q 244 536 286 578 q 200 414 202 494 m 386 793 l 195 996 l 376 996 l 499 793 l 386 793 z "},"é":{"ha":694,"x_min":58,"x_max":638,"o":"m 638 298 l 200 298 q 247 168 200 211 q 368 124 294 124 q 522 192 455 124 l 625 104 q 507 17 572 43 q 370 -9 441 -9 q 160 61 262 -9 q 58 349 58 132 q 152 633 58 554 q 349 711 246 711 q 551 631 465 711 q 638 414 638 551 l 638 298 m 200 414 l 497 414 q 452 536 494 494 q 349 578 411 578 q 244 536 286 578 q 200 414 202 494 m 195 793 l 319 996 l 499 996 l 308 793 l 195 793 z "},"ê":{"ha":694,"x_min":58,"x_max":638,"o":"m 119 780 l 319 939 l 408 939 l 610 780 l 497 780 l 357 855 l 232 780 l 119 780 m 638 298 l 200 298 q 247 168 200 211 q 368 124 294 124 q 522 192 455 124 l 625 104 q 507 17 572 43 q 370 -9 441 -9 q 160 61 262 -9 q 58 349 58 132 q 152 633 58 554 q 349 711 246 711 q 551 631 465 711 q 638 414 638 551 l 638 298 m 200 414 l 497 414 q 452 536 494 494 q 349 578 411 578 q 244 536 286 578 q 200 414 202 494 z "},"ë":{"ha":694,"x_min":58,"x_max":638,"o":"m 395 812 l 395 962 l 545 962 l 545 812 l 395 812 m 151 812 l 151 962 l 301 962 l 301 812 l 151 812 m 638 298 l 200 298 q 247 168 200 211 q 368 124 294 124 q 522 192 455 124 l 625 104 q 507 17 572 43 q 370 -9 441 -9 q 160 61 262 -9 q 58 349 58 132 q 152 633 58 554 q 349 711 246 711 q 551 631 465 711 q 638 414 638 551 l 638 298 m 200 414 l 497 414 q 452 536 494 494 q 349 578 411 578 q 244 536 286 578 q 200 414 202 494 z "},"ì":{"ha":333,"x_min":14,"x_max":319,"o":"m 97 -1 l 97 703 l 239 703 l 239 -1 l 97 -1 m 205 793 l 14 996 l 195 996 l 319 793 l 205 793 z "},"í":{"ha":333,"x_min":14,"x_max":319,"o":"m 97 -1 l 97 703 l 239 703 l 239 -1 l 97 -1 m 14 793 l 138 996 l 319 996 l 127 793 l 14 793 z "},"ò":{"ha":694,"x_min":58,"x_max":638,"o":"m 58 352 q 76 521 58 465 q 134 621 94 576 q 215 682 163 653 q 349 711 266 711 q 481 682 430 711 q 562 621 533 653 q 621 521 603 576 q 638 352 638 465 q 621 181 638 237 q 562 81 603 125 q 481 20 533 48 q 349 -9 430 -9 q 215 20 266 -9 q 134 81 163 48 q 76 181 94 125 q 58 352 58 237 m 497 351 q 489 458 497 427 q 463 518 481 490 q 349 570 425 570 q 235 518 271 570 q 207 458 214 490 q 200 352 200 427 q 207 243 200 275 q 235 184 214 212 q 349 132 271 132 q 463 184 425 132 q 489 243 481 212 q 497 351 497 274 m 386 793 l 195 996 l 376 996 l 499 793 l 386 793 z "},"ó":{"ha":694,"x_min":58,"x_max":638,"o":"m 58 352 q 76 521 58 465 q 134 621 94 576 q 215 682 163 653 q 349 711 266 711 q 481 682 430 711 q 562 621 533 653 q 621 521 603 576 q 638 352 638 465 q 621 181 638 237 q 562 81 603 125 q 481 20 533 48 q 349 -9 430 -9 q 215 20 266 -9 q 134 81 163 48 q 76 181 94 125 q 58 352 58 237 m 497 351 q 489 458 497 427 q 463 518 481 490 q 349 570 425 570 q 235 518 271 570 q 207 458 214 490 q 200 352 200 427 q 207 243 200 275 q 235 184 214 212 q 349 132 271 132 q 463 184 425 132 q 489 243 481 212 q 497 351 497 274 m 195 793 l 319 996 l 499 996 l 308 793 l 195 793 z "},"õ":{"ha":694,"x_min":58,"x_max":638,"o":"m 58 352 q 76 521 58 465 q 134 621 94 576 q 215 682 163 653 q 349 711 266 711 q 481 682 430 711 q 562 621 533 653 q 621 521 603 576 q 638 352 638 465 q 621 181 638 237 q 562 81 603 125 q 481 20 533 48 q 349 -9 430 -9 q 215 20 266 -9 q 134 81 163 48 q 76 181 94 125 q 58 352 58 237 m 497 351 q 489 458 497 427 q 463 518 481 490 q 349 570 425 570 q 235 518 271 570 q 207 458 214 490 q 200 352 200 427 q 207 243 200 275 q 235 184 214 212 q 349 132 271 132 q 463 184 425 132 q 489 243 481 212 q 497 351 497 274 m 188 806 l 107 806 q 159 925 118 880 q 260 968 197 968 q 309 961 287 968 q 357 943 338 952 q 403 925 380 932 q 443 916 422 916 q 482 928 464 914 q 507 977 499 940 l 587 977 q 543 865 578 911 q 439 815 507 816 q 389 825 413 815 q 338 841 363 831 q 245 867 286 865 q 210 856 231 867 q 188 806 188 841 z "},"ø":{"ha":694,"x_min":58,"x_max":638,"o":"m 58 352 q 76 521 58 465 q 134 621 94 576 q 215 682 163 653 q 349 711 266 711 q 481 682 430 711 q 562 621 533 653 q 621 521 603 576 q 638 352 638 465 q 621 181 638 237 q 562 81 603 125 q 481 20 533 48 q 349 -9 430 -9 q 215 20 266 -9 q 134 81 163 48 q 76 181 94 125 q 58 352 58 237 m 497 351 q 489 458 497 427 q 463 518 481 490 q 349 570 425 570 q 235 518 271 570 q 207 458 214 490 q 200 352 200 427 q 207 243 200 275 q 235 184 214 212 q 349 132 271 132 q 463 184 425 132 q 489 243 481 212 q 497 351 497 274 m 127 -8 l 468 712 l 579 712 l 239 -8 l 127 -8 z "},"ù":{"ha":745,"x_min":93,"x_max":655,"o":"m 93 235 l 93 703 l 235 703 l 235 283 q 274 172 235 212 q 375 132 314 132 q 474 172 434 132 q 513 283 513 212 l 513 703 l 655 703 l 655 -1 l 513 -1 l 513 74 l 511 74 q 329 -9 445 -9 q 169 53 245 -9 q 93 235 93 115 m 412 793 l 220 996 l 401 996 l 525 793 l 412 793 z "},"ú":{"ha":745,"x_min":93,"x_max":655,"o":"m 93 235 l 93 703 l 235 703 l 235 283 q 274 172 235 212 q 375 132 314 132 q 474 172 434 132 q 513 283 513 212 l 513 703 l 655 703 l 655 -1 l 513 -1 l 513 74 l 511 74 q 329 -9 445 -9 q 169 53 245 -9 q 93 235 93 115 m 220 793 l 345 996 l 525 996 l 334 793 l 220 793 z "},"ý":{"ha":616,"x_min":-8,"x_max":627,"o":"m 244 26 l -8 703 l 141 703 l 308 210 l 311 210 l 477 703 l 627 703 l 325 -146 q 243 -257 295 -228 q 126 -286 191 -286 l 79 -286 l 79 -152 l 121 -152 q 205 -91 184 -152 l 244 26 m 156 793 l 280 996 l 460 996 l 269 793 l 156 793 z "},"Ý":{"ha":694,"x_min":-19,"x_max":716,"o":"m 277 -1 l 277 406 l -19 987 l 138 987 l 349 549 l 558 987 l 716 987 l 419 406 l 419 -1 l 277 -1 m 201 1057 l 326 1259 l 506 1259 l 315 1057 l 201 1057 z "},"Ú":{"ha":875,"x_min":87,"x_max":790,"o":"m 87 334 l 87 987 l 237 987 l 237 351 q 295 194 237 248 q 439 140 353 140 q 582 194 524 140 q 640 351 640 248 l 640 987 l 790 987 l 790 334 q 688 85 790 179 q 439 -9 585 -9 q 190 85 292 -9 q 87 334 87 179 m 298 1051 l 422 1254 l 602 1254 l 411 1051 l 298 1051 z "},"Ù":{"ha":875,"x_min":87,"x_max":790,"o":"m 87 334 l 87 987 l 237 987 l 237 351 q 295 194 237 248 q 439 140 353 140 q 582 194 524 140 q 640 351 640 248 l 640 987 l 790 987 l 790 334 q 688 85 790 179 q 439 -9 585 -9 q 190 85 292 -9 q 87 334 87 179 m 471 1053 l 280 1256 l 461 1256 l 585 1053 l 471 1053 z "},"À":{"ha":865,"x_min":1,"x_max":846,"o":"m 1 0 l 362 989 l 486 989 l 846 0 l 689 0 l 613 223 l 238 223 l 159 0 l 1 0 m 282 355 l 568 355 q 519 499 537 447 q 488 591 501 551 q 461 672 475 631 q 425 784 448 713 q 387 667 401 711 q 360 583 373 623 q 329 492 347 542 q 282 355 312 441 m 452 1031 l 287 1324 l 443 1324 l 549 1031 l 452 1031 z "},"Á":{"ha":865,"x_min":1,"x_max":846,"o":"m 1 0 l 362 989 l 486 989 l 846 0 l 689 0 l 613 223 l 238 223 l 159 0 l 1 0 m 282 355 l 568 355 q 519 499 537 447 q 488 591 501 551 q 461 672 475 631 q 425 784 448 713 q 387 667 401 711 q 360 583 373 623 q 329 492 347 542 q 282 355 312 441 m 289 1032 l 413 1235 l 593 1235 l 402 1032 l 289 1032 z "},"Ì":{"ha":358,"x_min":-16,"x_max":288,"o":"m 105 -1 l 105 987 l 255 987 l 255 -1 l 105 -1 m 175 1036 l -16 1238 l 165 1238 l 288 1036 l 175 1036 z "},"Í":{"ha":358,"x_min":105,"x_max":427,"o":"m 105 -1 l 105 987 l 255 987 l 255 -1 l 105 -1 m 123 1045 l 247 1248 l 427 1248 l 236 1045 l 123 1045 z "},"Ò":{"ha":847,"x_min":72,"x_max":777,"o":"m 72 493 q 81 723 72 671 q 115 818 91 774 q 229 939 150 882 q 425 996 308 996 q 620 939 541 996 q 734 818 699 882 q 768 723 758 774 q 777 493 777 671 q 768 263 777 315 q 734 168 758 212 q 620 47 699 103 q 425 -9 541 -9 q 229 47 308 -9 q 115 168 150 103 q 81 263 91 212 q 72 493 72 315 m 222 493 q 232 295 222 340 q 272 213 243 250 q 333 162 294 183 q 425 140 372 140 q 516 162 477 140 q 577 213 555 183 q 617 295 606 250 q 627 493 627 340 q 617 690 627 645 q 577 774 606 736 q 516 824 555 802 q 425 846 477 846 q 333 824 372 846 q 272 774 294 802 q 232 690 243 736 q 222 493 222 645 m 375 1047 l 184 1250 l 365 1250 l 488 1047 l 375 1047 z "},"Ó":{"ha":847,"x_min":72,"x_max":777,"o":"m 72 493 q 81 723 72 671 q 115 818 91 774 q 229 939 150 882 q 425 996 308 996 q 620 939 541 996 q 734 818 699 882 q 768 723 758 774 q 777 493 777 671 q 768 263 777 315 q 734 168 758 212 q 620 47 699 103 q 425 -9 541 -9 q 229 47 308 -9 q 115 168 150 103 q 81 263 91 212 q 72 493 72 315 m 222 493 q 232 295 222 340 q 272 213 243 250 q 333 162 294 183 q 425 140 372 140 q 516 162 477 140 q 577 213 555 183 q 617 295 606 250 q 627 493 627 340 q 617 690 627 645 q 577 774 606 736 q 516 824 555 802 q 425 846 477 846 q 333 824 372 846 q 272 774 294 802 q 232 690 243 736 q 222 493 222 645 m 362 1044 l 486 1246 l 667 1246 l 475 1044 l 362 1044 z "},"€":{"ha":1103,"x_min":57,"x_max":1050,"o":"m 1050 838 l 1009 751 q 872 855 956 814 q 682 896 789 896 q 450 818 549 896 q 319 626 351 741 l 951 626 l 908 536 l 298 536 q 296 490 296 500 q 298 447 296 478 l 867 447 l 825 357 l 319 357 q 457 158 357 231 q 696 85 558 85 q 874 123 792 85 q 1009 225 956 161 l 1009 104 q 870 28 956 62 q 690 -5 785 -5 q 388 92 519 -5 q 218 357 256 189 l 57 357 l 100 447 l 201 447 q 199 491 199 465 q 201 536 199 518 l 57 536 l 100 626 l 218 626 q 388 890 256 794 q 696 985 520 985 q 895 945 798 985 q 1050 838 993 905 z "},"Æ":{"ha":1161,"x_min":7,"x_max":1078,"o":"m 604 -3 l 604 220 l 300 220 l 182 1 l 7 1 l 550 993 l 1078 993 l 1078 844 l 745 844 l 745 567 l 1025 567 l 1025 429 l 745 429 l 745 143 l 1078 143 l 1078 -3 l 653 -3 l 636 -4 l 604 -3 m 370 356 l 604 356 l 604 825 l 370 356 z "},"æ":{"ha":1109,"x_min":53,"x_max":1042,"o":"m 1042 297 l 604 297 q 651 167 604 210 q 772 123 699 123 q 926 191 859 123 l 1029 104 q 911 17 977 43 q 774 -9 846 -9 q 561 56 666 -9 q 523 111 547 74 q 404 6 444 22 q 294 -12 362 -12 q 118 51 178 -9 q 53 203 53 111 q 109 351 53 292 q 275 412 165 411 l 465 412 q 466 422 465 417 l 466 487 q 326 578 467 581 q 244 567 277 578 q 196 523 212 553 l 87 608 q 319 711 166 713 q 525 661 447 712 q 556 631 543 648 q 753 711 650 711 q 956 630 869 711 q 1042 414 1042 550 l 1042 297 m 466 244 q 463 296 463 269 l 301 296 q 182 210 180 292 q 213 149 182 175 q 311 121 243 121 q 433 142 398 120 q 466 244 466 165 m 604 414 l 901 414 q 857 535 898 493 q 753 577 815 577 q 648 535 690 577 q 604 414 606 493 z "},"Ø":{"ha":847,"x_min":72,"x_max":777,"o":"m 72 493 q 81 723 72 671 q 115 818 91 774 q 229 939 150 882 q 425 996 308 996 q 620 939 541 996 q 734 818 699 882 q 768 723 758 774 q 777 493 777 671 q 768 263 777 315 q 734 168 758 212 q 620 47 699 103 q 425 -9 541 -9 q 229 47 308 -9 q 115 168 150 103 q 81 263 91 212 q 72 493 72 315 m 222 493 q 232 295 222 340 q 272 213 243 250 q 333 162 294 183 q 425 140 372 140 q 516 162 477 140 q 577 213 555 183 q 617 295 606 250 q 627 493 627 340 q 617 690 627 645 q 577 774 606 736 q 516 824 555 802 q 425 846 477 846 q 333 824 372 846 q 272 774 294 802 q 232 690 243 736 q 222 493 222 645 m 203 -9 l 535 996 l 644 996 l 312 -9 l 203 -9 z "},"œ":{"ha":1185,"x_min":58,"x_max":1076,"o":"m 58 352 q 76 521 58 465 q 134 621 94 576 q 215 682 163 653 q 349 711 266 711 q 481 682 430 711 q 562 621 533 653 q 621 521 603 576 q 638 352 638 465 q 621 181 638 237 q 562 81 603 125 q 481 20 533 48 q 349 -9 430 -9 q 215 20 266 -9 q 134 81 163 48 q 76 181 94 125 q 58 352 58 237 m 497 351 q 489 458 497 427 q 463 518 481 490 q 349 570 425 570 q 235 518 271 570 q 207 458 214 490 q 200 352 200 427 q 207 243 200 275 q 235 184 214 212 q 349 132 271 132 q 463 184 425 132 q 489 243 481 212 q 497 351 497 274 m 1076 302 l 638 302 q 685 172 638 215 q 806 128 732 128 q 960 196 893 128 l 1063 109 q 945 21 1010 47 q 808 -5 880 -5 q 598 65 700 -5 q 496 353 496 136 q 590 637 496 558 q 787 715 684 715 q 989 635 903 715 q 1076 418 1076 555 l 1076 302 m 638 418 l 935 418 q 890 540 932 498 q 787 582 849 582 q 682 540 724 582 q 638 418 640 498 z "},"Ÿ":{"ha":694,"x_min":-19,"x_max":716,"o":"m 399 1055 l 399 1205 l 549 1205 l 549 1055 l 399 1055 m 155 1055 l 155 1205 l 305 1205 l 305 1055 l 155 1055 m 277 -1 l 277 406 l -19 987 l 138 987 l 349 549 l 558 987 l 716 987 l 419 406 l 419 -1 l 277 -1 z "},"ÿ":{"ha":616,"x_min":-8,"x_max":627,"o":"m 395 812 l 395 962 l 545 962 l 545 812 l 395 812 m 151 812 l 151 962 l 301 962 l 301 812 l 151 812 m 244 26 l -8 703 l 141 703 l 308 210 l 311 210 l 477 703 l 627 703 l 325 -146 q 243 -257 295 -228 q 126 -286 191 -286 l 79 -286 l 79 -152 l 121 -152 q 205 -91 184 -152 l 244 26 z "},"Ë":{"ha":772,"x_min":105,"x_max":737,"o":"m 486 1050 l 486 1200 l 636 1200 l 636 1050 l 486 1050 m 242 1050 l 242 1200 l 392 1200 l 392 1050 l 242 1050 m 105 -1 l 105 987 l 737 987 l 737 846 l 255 846 l 255 564 l 666 564 l 666 431 l 255 431 l 255 140 l 737 140 l 737 -1 l 105 -1 z "},"Ï":{"ha":358,"x_min":-10,"x_max":384,"o":"m 234 1059 l 234 1209 l 384 1209 l 384 1059 l 234 1059 m -10 1059 l -10 1209 l 140 1209 l 140 1059 l -10 1059 m 105 -1 l 105 987 l 255 987 l 255 -1 l 105 -1 z "},"ƒ":{"ha":386,"x_min":-8,"x_max":398,"o":"m 111 -77 l 111 595 l 44 595 l 44 703 l 115 703 l 115 796 q 170 941 115 895 q 307 987 224 987 l 398 987 l 398 854 l 318 854 q 256 796 256 854 l 256 703 l 398 703 l 398 595 l 256 595 l 256 -1 l 252 -1 l 252 -88 q 194 -231 252 -176 q 47 -286 136 -286 l -8 -286 l -8 -152 l 32 -152 q 111 -77 111 -152 z "},"…":{"ha":999,"x_min":97,"x_max":905,"o":"m 97 -1 l 97 140 l 239 140 l 239 -1 l 97 -1 m 430 -1 l 430 140 l 572 140 l 572 -1 l 430 -1 m 763 -1 l 763 140 l 905 140 l 905 -1 l 763 -1 z "},"Ã":{"ha":865,"x_min":1,"x_max":846,"o":"m 1 0 l 362 989 l 486 989 l 846 0 l 689 0 l 613 223 l 238 223 l 159 0 l 1 0 m 282 355 l 568 355 q 519 499 537 447 q 488 591 501 551 q 461 672 475 631 q 425 784 448 713 q 387 667 401 711 q 360 583 373 623 q 329 492 347 542 q 282 355 312 441 m 281 1042 l 200 1042 q 252 1160 211 1116 q 353 1203 290 1203 q 402 1196 380 1203 q 450 1179 431 1187 q 496 1160 473 1168 q 536 1151 515 1151 q 575 1163 557 1149 q 600 1212 592 1175 l 680 1212 q 636 1101 671 1147 q 532 1050 600 1051 q 482 1060 506 1050 q 431 1076 456 1067 q 338 1102 378 1101 q 302 1091 324 1102 q 281 1042 281 1076 z "},"Â":{"ha":814,"x_min":63,"x_max":908,"o":"m 233 1051 l 433 1210 l 522 1210 l 724 1051 l 611 1051 l 471 1126 l 346 1051 l 233 1051 m 63 0 l 424 989 l 547 989 l 908 0 l 751 0 l 675 223 l 300 223 l 221 0 l 63 0 m 344 355 l 630 355 q 581 499 599 447 q 550 591 563 551 q 523 672 536 631 q 487 784 509 713 q 449 667 463 711 q 421 583 435 623 q 391 492 408 542 q 344 355 374 441 z "},"î":{"ha":333,"x_min":-72,"x_max":420,"o":"m 97 -1 l 97 703 l 239 703 l 239 -1 l 97 -1 m -72 785 l 128 943 l 217 943 l 420 785 l 307 785 l 166 860 l 41 785 l -72 785 z "},"Î":{"ha":358,"x_min":-56,"x_max":435,"o":"m -56 1049 l 144 1208 l 233 1208 l 435 1049 l 322 1049 l 182 1124 l 57 1049 l -56 1049 m 105 -1 l 105 987 l 255 987 l 255 -1 l 105 -1 z "},"Ð":{"ha":875,"x_min":25,"x_max":805,"o":"m 105 -1 l 105 432 l 25 432 l 25 574 l 105 574 l 105 987 l 451 987 q 752 821 654 987 q 797 703 789 758 q 805 493 805 648 q 794 270 805 326 q 749 163 783 214 q 628 46 705 94 q 441 -1 551 -1 l 105 -1 m 255 846 l 255 574 l 444 574 l 444 432 l 255 432 l 255 140 l 435 140 q 618 227 558 140 q 649 307 642 264 q 655 488 655 350 q 648 671 655 621 q 611 763 641 722 q 435 846 549 846 l 255 846 z "},"Ñ":{"ha":949,"x_min":105,"x_max":847,"o":"m 105 -1 l 105 987 l 247 987 l 694 285 l 696 285 l 696 987 l 847 987 l 847 -1 l 705 -1 l 258 702 l 255 702 l 255 -1 l 105 -1 m 300 1057 l 220 1057 q 271 1175 231 1131 q 372 1218 310 1218 q 422 1211 399 1218 q 469 1194 451 1202 q 515 1175 492 1183 q 555 1166 535 1166 q 595 1178 576 1164 q 619 1227 612 1190 l 700 1227 q 656 1116 690 1162 q 552 1065 620 1066 q 502 1075 526 1065 q 450 1091 475 1082 q 357 1117 398 1116 q 322 1106 344 1117 q 300 1057 300 1091 z "},"ñ":{"ha":745,"x_min":93,"x_max":655,"o":"m 93 -1 l 93 703 l 235 703 l 235 628 l 237 628 q 420 711 303 711 q 579 649 503 711 q 655 467 655 587 l 655 -1 l 513 -1 l 513 418 q 474 530 513 490 q 375 570 434 570 q 274 530 314 570 q 235 418 235 490 l 235 -1 l 93 -1 m 213 806 l 132 806 q 184 925 143 880 q 285 968 222 968 q 334 961 312 968 q 382 943 363 952 q 428 925 405 932 q 468 916 448 916 q 507 928 489 914 q 532 977 524 940 l 612 977 q 568 865 603 911 q 465 815 532 816 q 414 825 438 815 q 363 841 388 831 q 270 867 311 865 q 235 856 256 867 q 213 806 213 841 z "},"Ç":{"ha":772,"x_min":72,"x_max":772,"o":"m 614 275 l 772 275 q 647 64 743 137 q 425 -9 551 -9 q 229 47 308 -9 q 115 168 150 103 q 81 263 91 212 q 72 493 72 315 q 81 723 72 671 q 115 818 91 774 q 229 939 150 882 q 425 996 308 996 q 657 910 565 996 q 772 703 749 823 l 614 703 q 546 803 595 760 q 425 846 496 846 q 333 824 372 846 q 272 774 294 802 q 232 690 243 736 q 222 493 222 645 q 232 295 222 340 q 272 213 243 250 q 333 162 294 183 q 425 140 372 140 q 614 275 549 140 m 370 -3 l 438 -3 l 378 -86 l 381 -86 q 418 -81 397 -81 q 506 -111 474 -81 q 536 -186 536 -142 q 488 -284 535 -253 q 371 -317 440 -317 q 235 -284 306 -316 l 258 -226 q 353 -247 307 -245 q 432 -188 429 -247 q 413 -149 432 -160 q 366 -136 395 -136 q 313 -151 338 -135 l 281 -125 l 370 -3 z "},"ç":{"ha":616,"x_min":39,"x_max":611,"o":"m 507 206 l 611 113 q 502 25 565 60 q 358 -9 438 -9 q 137 74 236 -9 q 39 351 39 157 q 137 628 39 544 q 358 711 236 711 q 502 677 438 711 q 611 589 565 642 l 507 496 q 363 570 447 570 q 180 351 180 570 q 363 132 180 132 q 507 206 448 132 m 292 -3 l 361 -3 l 301 -86 l 304 -86 q 341 -81 320 -81 q 429 -111 397 -81 q 459 -186 459 -142 q 410 -284 458 -253 q 294 -317 363 -317 q 157 -284 229 -316 l 181 -226 q 276 -247 229 -245 q 355 -188 351 -247 q 336 -149 355 -160 q 288 -136 317 -136 q 235 -151 261 -135 l 204 -125 l 292 -3 z "},"Õ":{"ha":847,"x_min":72,"x_max":777,"o":"m 72 493 q 81 723 72 671 q 115 818 91 774 q 229 939 150 882 q 425 996 308 996 q 620 939 541 996 q 734 818 699 882 q 768 723 758 774 q 777 493 777 671 q 768 263 777 315 q 734 168 758 212 q 620 47 699 103 q 425 -9 541 -9 q 229 47 308 -9 q 115 168 150 103 q 81 263 91 212 q 72 493 72 315 m 222 493 q 232 295 222 340 q 272 213 243 250 q 333 162 294 183 q 425 140 372 140 q 516 162 477 140 q 577 213 555 183 q 617 295 606 250 q 627 493 627 340 q 617 690 627 645 q 577 774 606 736 q 516 824 555 802 q 425 846 477 846 q 333 824 372 846 q 272 774 294 802 q 232 690 243 736 q 222 493 222 645 m 272 1032 l 191 1032 q 243 1151 202 1106 q 344 1194 281 1194 q 393 1187 371 1194 q 441 1169 422 1178 q 487 1151 464 1158 q 527 1141 507 1141 q 566 1154 548 1140 q 591 1202 583 1166 l 671 1202 q 627 1091 662 1137 q 524 1041 591 1042 q 473 1050 497 1041 q 422 1067 447 1057 q 329 1093 370 1091 q 294 1082 315 1093 q 272 1032 272 1067 z "},"Û":{"ha":875,"x_min":87,"x_max":790,"o":"m 194 1050 l 394 1208 l 483 1208 l 686 1050 l 572 1050 l 432 1125 l 307 1050 l 194 1050 m 87 334 l 87 987 l 237 987 l 237 351 q 295 194 237 248 q 439 140 353 140 q 582 194 524 140 q 640 351 640 248 l 640 987 l 790 987 l 790 334 q 688 85 790 179 q 439 -9 585 -9 q 190 85 292 -9 q 87 334 87 179 z "},"û":{"ha":745,"x_min":93,"x_max":655,"o":"m 121 786 l 321 945 l 410 945 l 613 786 l 500 786 l 359 861 l 235 786 l 121 786 m 93 235 l 93 703 l 235 703 l 235 283 q 274 172 235 212 q 375 132 314 132 q 474 172 434 132 q 513 283 513 212 l 513 703 l 655 703 l 655 -1 l 513 -1 l 513 74 l 511 74 q 329 -9 445 -9 q 169 53 245 -9 q 93 235 93 115 z "},"Ô":{"ha":847,"x_min":72,"x_max":777,"o":"m 189 1048 l 389 1207 l 478 1207 l 681 1048 l 568 1048 l 427 1124 l 302 1048 l 189 1048 m 72 493 q 81 723 72 671 q 115 818 91 774 q 229 939 150 882 q 425 996 308 996 q 620 939 541 996 q 734 818 699 882 q 768 723 758 774 q 777 493 777 671 q 768 263 777 315 q 734 168 758 212 q 620 47 699 103 q 425 -9 541 -9 q 229 47 308 -9 q 115 168 150 103 q 81 263 91 212 q 72 493 72 315 m 222 493 q 232 295 222 340 q 272 213 243 250 q 333 162 294 183 q 425 140 372 140 q 516 162 477 140 q 577 213 555 183 q 617 295 606 250 q 627 493 627 340 q 617 690 627 645 q 577 774 606 736 q 516 824 555 802 q 425 846 477 846 q 333 824 372 846 q 272 774 294 802 q 232 690 243 736 q 222 493 222 645 z "},"ô":{"ha":694,"x_min":58,"x_max":638,"o":"m 83 787 l 283 945 l 372 945 l 575 787 l 462 787 l 321 862 l 197 787 l 83 787 m 58 352 q 76 521 58 465 q 134 621 94 576 q 215 682 163 653 q 349 711 266 711 q 481 682 430 711 q 562 621 533 653 q 621 521 603 576 q 638 352 638 465 q 621 181 638 237 q 562 81 603 125 q 481 20 533 48 q 349 -9 430 -9 q 215 20 266 -9 q 134 81 163 48 q 76 181 94 125 q 58 352 58 237 m 497 351 q 489 458 497 427 q 463 518 481 490 q 349 570 425 570 q 235 518 271 570 q 207 458 214 490 q 200 352 200 427 q 207 243 200 275 q 235 184 214 212 q 349 132 271 132 q 463 184 425 132 q 489 243 481 212 q 497 351 497 274 z "},"Þ":{"ha":823,"x_min":105,"x_max":793,"o":"m 105 -1 l 105 987 l 255 987 l 255 785 l 464 785 q 575 772 522 785 q 686 715 628 760 q 762 620 730 681 q 793 479 793 559 q 714 278 793 374 q 483 182 635 182 l 255 182 l 255 -1 l 105 -1 m 255 643 l 255 324 l 477 324 q 602 374 561 324 q 643 484 643 425 q 578 615 643 573 q 472 643 537 643 l 255 643 z "},"þ":{"ha":720,"x_min":93,"x_max":655,"o":"m 93 -286 l 93 988 l 227 988 l 227 629 q 416 711 309 711 q 528 685 481 711 q 605 620 574 659 q 645 531 634 582 q 655 351 655 481 q 645 170 655 221 q 605 82 634 119 q 528 17 574 42 q 416 -9 481 -9 q 318 14 361 -9 q 235 74 274 36 l 235 -286 l 93 -286 m 374 132 q 493 201 473 132 q 513 351 513 269 q 493 501 513 432 q 374 570 473 570 q 254 498 274 570 q 235 351 235 427 q 254 203 235 274 q 374 132 274 132 z "},"ð":{"ha":694,"x_min":58,"x_max":638,"o":"m 153 768 l 153 910 l 278 910 l 240 987 l 392 987 q 431 910 413 946 l 572 910 l 572 768 l 503 768 q 621 521 608 558 q 638 352 638 465 q 621 181 638 237 q 562 81 603 125 q 481 20 533 48 q 349 -9 430 -9 q 215 20 266 -9 q 134 81 163 48 q 76 181 94 125 q 58 352 58 237 q 76 521 58 465 q 134 621 94 576 q 215 682 163 653 q 349 711 266 711 q 377 710 363 711 l 348 768 l 153 768 m 497 351 q 489 458 497 427 q 463 518 481 490 q 349 570 425 570 q 235 518 271 570 q 207 458 214 490 q 200 352 200 427 q 207 243 200 275 q 235 184 214 212 q 349 132 271 132 q 463 184 425 132 q 489 243 481 212 q 497 351 497 274 z "},"›":{"ha":857,"x_min":4,"x_max":848,"o":"m 689 -1 l 427 785 l 425 785 l 165 -1 l 4 -1 l 363 987 l 488 987 l 848 -1 l 689 -1 z "},"ï":{"ha":333,"x_min":-29,"x_max":365,"o":"m 97 -1 l 97 703 l 239 703 l 239 -1 l 97 -1 m 215 829 l 215 979 l 365 979 l 365 829 l 215 829 m -29 829 l -29 979 l 121 979 l 121 829 l -29 829 z "},"Ž":{"ha":720,"x_min":45,"x_max":677,"o":"m 663 1210 l 463 1051 l 374 1051 l 171 1210 l 284 1210 l 425 1135 l 549 1210 l 663 1210 m 45 -1 l 45 124 l 494 854 l 64 854 l 64 987 l 677 987 l 677 875 l 227 140 l 677 140 l 677 -1 l 45 -1 z "},"ž":{"ha":616,"x_min":47,"x_max":572,"o":"m 568 957 l 368 798 l 279 798 l 77 957 l 190 957 l 330 882 l 455 957 l 568 957 m 47 -1 l 47 111 l 399 578 l 66 578 l 66 703 l 572 703 l 572 591 l 219 132 l 572 132 l 572 -1 l 47 -1 z "},"È":{"ha":772,"x_min":105,"x_max":737,"o":"m 105 -1 l 105 987 l 737 987 l 737 846 l 255 846 l 255 564 l 666 564 l 666 431 l 255 431 l 255 140 l 737 140 l 737 -1 l 105 -1 m 421 1057 l 230 1259 l 411 1259 l 534 1057 l 421 1057 z "},"É":{"ha":772,"x_min":105,"x_max":737,"o":"m 105 -1 l 105 987 l 737 987 l 737 846 l 255 846 l 255 564 l 666 564 l 666 431 l 255 431 l 255 140 l 737 140 l 737 -1 l 105 -1 m 302 1044 l 426 1247 l 606 1247 l 415 1044 l 302 1044 z "},"Ê":{"ha":772,"x_min":105,"x_max":737,"o":"m 233 1051 l 433 1210 l 522 1210 l 724 1051 l 611 1051 l 471 1126 l 346 1051 l 233 1051 m 105 -1 l 105 987 l 737 987 l 737 846 l 255 846 l 255 564 l 666 564 l 666 431 l 255 431 l 255 140 l 737 140 l 737 -1 l 105 -1 z "},"Œ":{"ha":1112,"x_min":72,"x_max":970,"o":"m 497 -3 q 425 -9 463 -9 q 229 47 308 -9 q 115 168 150 103 q 81 263 91 212 q 72 493 72 315 q 81 723 72 671 q 115 818 91 774 q 229 939 150 882 q 425 996 308 996 q 498 989 463 996 l 970 989 l 970 846 l 625 846 l 625 564 l 899 564 l 899 431 l 625 431 l 625 140 l 970 140 l 970 -1 l 497 -3 m 425 846 q 333 824 372 846 q 272 774 294 802 q 232 690 243 736 q 222 493 222 645 q 232 295 222 340 q 272 213 243 250 q 333 162 294 183 q 425 140 372 140 q 475 146 452 140 l 475 840 q 425 846 452 846 z "},"Š":{"ha":797,"x_min":19,"x_max":744,"o":"m 663 1210 l 463 1051 l 374 1051 l 171 1210 l 284 1210 l 425 1135 l 549 1210 l 663 1210 m 19 127 l 118 239 q 246 168 174 195 q 398 140 319 140 q 542 178 490 140 q 594 278 594 216 q 465 412 594 395 q 402 420 431 416 q 334 429 373 424 q 139 523 206 447 q 72 707 72 600 q 156 915 72 833 q 394 996 241 996 q 566 967 486 996 q 715 893 647 938 l 631 770 q 515 825 577 804 q 387 846 452 846 q 270 810 318 846 q 222 705 222 775 q 254 626 222 663 q 362 578 287 589 q 410 571 382 574 q 473 563 437 567 q 678 463 612 546 q 744 278 744 379 q 650 66 744 142 q 397 -9 555 -9 q 19 127 174 -9 z "},"‰":{"ha":1036,"x_min":72,"x_max":978,"o":"m 796 213 l 796 138 q 848 70 796 70 q 899 138 899 70 l 899 213 q 848 281 899 281 q 796 213 796 281 m 717 128 l 717 222 q 757 328 717 295 q 848 360 797 360 q 938 328 897 360 q 978 222 978 295 l 978 128 q 938 23 978 55 q 848 -9 897 -9 q 757 23 797 -9 q 717 128 717 55 m 72 764 l 72 859 q 112 964 72 931 q 203 996 152 996 q 293 964 252 996 q 333 859 333 931 l 333 764 q 293 659 333 691 q 203 627 252 627 q 112 659 152 627 q 72 764 72 691 m 151 849 l 151 774 q 203 706 151 706 q 254 774 254 706 l 254 849 q 203 917 254 917 q 151 849 151 917 m 81 -1 l 550 987 l 642 987 l 174 -1 l 81 -1 m 469 213 l 469 138 q 521 70 469 70 q 572 138 572 70 l 572 213 q 521 281 572 281 q 469 213 469 281 m 390 128 l 390 222 q 430 328 390 295 q 521 360 470 360 q 611 328 570 360 q 651 222 651 295 l 651 128 q 611 23 651 55 q 521 -9 570 -9 q 430 23 470 -9 q 390 128 390 55 z "},"†":{"ha":531,"x_min":58,"x_max":476,"o":"m 185 -1 l 185 694 l 58 694 l 58 836 l 185 836 l 185 987 l 335 987 l 335 836 l 476 836 l 476 694 l 335 694 l 335 -1 l 185 -1 z "},"‡":{"ha":531,"x_min":58,"x_max":476,"o":"m 185 -1 l 185 163 l 58 163 l 58 304 l 185 304 l 185 694 l 58 694 l 58 836 l 185 836 l 185 987 l 335 987 l 335 836 l 476 836 l 476 694 l 335 694 l 335 304 l 476 304 l 476 163 l 335 163 l 335 -1 l 185 -1 z "},"ſ":{"ha":386,"x_min":115,"x_max":398,"o":"m 115 -177 l 115 796 q 170 941 115 895 q 307 987 224 987 l 398 987 l 398 854 l 318 854 q 256 796 256 854 l 256 -177 l 115 -177 z "},"¨":{"ha":848,"x_min":224,"x_max":618,"o":"m 224 1057 l 224 1207 l 374 1207 l 374 1057 l 224 1057 m 469 1057 l 469 1207 l 618 1207 l 618 1057 l 469 1057 z "},"š":{"ha":667,"x_min":15,"x_max":616,"o":"m 15 117 l 114 214 q 336 124 206 124 q 435 147 396 124 q 475 214 475 170 q 389 283 475 276 l 264 295 q 119 353 176 302 q 61 494 61 404 q 136 656 61 602 q 323 711 212 711 q 481 685 416 711 q 600 616 547 659 l 512 513 q 425 559 470 541 q 323 578 380 578 q 229 554 256 578 q 203 493 203 530 q 222 450 203 470 q 296 427 242 431 l 412 418 q 569 351 522 411 q 616 208 616 291 q 532 47 616 104 q 325 -9 447 -9 q 15 117 149 -9 m 555 954 l 355 795 l 267 795 l 64 954 l 177 954 l 317 878 l 442 954 l 555 954 z "},"ˆ":{"ha":814,"x_min":233,"x_max":724,"o":"m 233 1051 l 433 1210 l 522 1210 l 724 1051 l 611 1051 l 471 1126 l 346 1051 l 233 1051 z "}}}
